<svg xmlns="http://www.w3.org/2000/svg" xmlns:xlink="http://www.w3.org/1999/xlink" width="512" height="435" viewBox="0 0 512 435">
  <defs>
    <clipPath id="clip-Artboard_1">
      <rect width="512" height="435"/>
    </clipPath>
  </defs>
  <g id="Artboard_1" data-name="Artboard – 1" clip-path="url(#clip-Artboard_1)">
    <g id="Artificial_intelligence-amico" data-name="Artificial intelligence-amico" transform="translate(-12.91 -61.44)">
      <g id="freepik--Floor--inject-6" transform="translate(14.41 199.991)">
        <g id="freepik--floor--inject-6-2" data-name="freepik--floor--inject-6">
          <path id="freepik--floor--inject-6-3" data-name="freepik--floor--inject-6" d="M254.5,0C395.056,0,509,65.782,509,146.928S395.056,293.857,254.5,293.857,0,228.075,0,146.928,113.944,0,254.5,0Z" fill="#020855" stroke="#407bff" stroke-width="1"/>
        </g>
        <path id="Path_1343" data-name="Path 1343" d="M59.06,350.583l37.116-21.432-.541-.931L58.821,349.5H42.444L21.77,361.407c.141.325.281.66.433,1L42.769,350.55Z" transform="translate(-13.803 -178.001)" fill="#407bff"/>
        <path id="Path_1344" data-name="Path 1344" d="M69,368.492l-.541-.942L43.562,381.9H35l.844,1.082h8.032Z" transform="translate(-12.713 -174.759)" fill="#407bff"/>
        <path id="Path_1345" data-name="Path 1345" d="M95.385,341.888,94.876,341,30.84,377.9c.206.3.4.606.606.9Z" transform="translate(-13.056 -176.948)" fill="#407bff"/>
        <path id="Path_1346" data-name="Path 1346" d="M260.652,229.321l59.588-34.4-1.689-.281L260.1,228.379Z" transform="translate(5.841 -189.011)" fill="#407bff"/>
        <path id="Path_1347" data-name="Path 1347" d="M299.194,192.366l-1.786-.206L284.17,199.8l.541.931Z" transform="translate(7.825 -189.216)" fill="#407bff"/>
        <path id="Path_1348" data-name="Path 1348" d="M191.151,208.293l-18.228,10.521a5.6,5.6,0,0,0-3.4.141l-25.285-14.591-1.429.422,25.7,14.829a1.256,1.256,0,0,0-.065,1.8l-14.71,8.486,23.51,13.574.541-.931L155.9,229.9l13.52-7.8a5.412,5.412,0,0,0,3.637.152l20.479,11.82.541-.931L174.2,221.661a1.331,1.331,0,0,0-.087-2.273l19.2-11.095-19.408-11.2-1.58.336Z" transform="translate(-3.827 -188.809)" fill="#407bff"/>
        <path id="Path_1349" data-name="Path 1349" d="M215.044,207.226v-16.1l-1.082.1v15.338l-26.141,15.154a5.325,5.325,0,0,0-4.146.271,1.45,1.45,0,0,0,0,2.749,5.271,5.271,0,0,0,4.763,0c1.082-.66,1.277-1.656.465-2.4l25.87-14.937Z" transform="translate(-0.54 -189.301)" fill="#407bff"/>
        <path id="Path_1350" data-name="Path 1350" d="M486.254,412.851l.812-.779-13.346-7.707V387.706L357.694,320.715l-.476-.823-.476.271-.476-.271-.119-.076H329.692L356.752,304.2l149,86.031.606-.9L358.6,304.024c4.589-.162,16.464,0,24.279.216h.184l1.818-1.082,128.473,74.168c.162-.325.325-.649.476-.974l-127.9-73.735,9.352-5.412,1.754,1.017h0l.087.054h0l88.77,50.982c-.79.747-.639,1.732.487,2.381a5.25,5.25,0,0,0,4.752,0,1.451,1.451,0,0,0,0-2.749,5.336,5.336,0,0,0-4.167-.26L399.3,298.287h25.253v.076l.13-.076h14.45l73.6,42.464V364.77l4.849,2.8c.13-.346.249-.693.368-1.082l-4.135-2.392v-24L486.762,324.46l4.438-2.555V309.815l22.731-13.13c-.152-.325-.314-.649-.476-.974l-23.077,13.325-.271.152v12.091l-4.438,2.565-19.895-11.485V303.19l19.04-10.987.271-.162V274.355l9.807-5.672-.736-.823L441.43,298.287l-1.786-1.028-.13-.076h-12.87l61.482-35.493-.812-.779L424.48,297.2H397.419l-1.082-.628,33.274-19.191-.541-.942-33.728,19.484-16.734-9.655h1.407l45.559-26.314h21.335a2.046,2.046,0,0,0,.833.833,5.271,5.271,0,0,0,4.763,0c1.082-.649,1.277-1.645.465-2.392l18.758-10.824-.931-.714-18.91,10.911a5.336,5.336,0,0,0-4.146.271,2.165,2.165,0,0,0-.833.833H425.281l-45.57,26.314H376.68L357.824,274.3l52.389-30.243h31.066l13.693-7.913-1.082-.639L440.9,242.975H409.834l-53.19,30.7L340.851,264.5l66.028-38.1a5.412,5.412,0,0,0,3.637,0L427.9,236.437l13.725-7.923-1.082-.6-12.6,7.274-16.377-9.428a1.277,1.277,0,0,0-.054-1.981l9.19-5.3-1.234-.541-9.038,5.217a5.661,5.661,0,0,0-3.442,0l-18.4-10.651,6.43-3.713c-.455-.152-.909-.314-1.375-.455l-6.137,3.54L379.57,207.3c.736-.736.563-1.7-.53-2.327a5.206,5.206,0,0,0-4.763,0c-1.082.649-1.277,1.645-.465,2.392l-66.028,38.1-4.092-2.381-.13-.065H281.838L317.709,222.3h16.334L370,201.54l-1.526-.368-34.724,20.047H317.417L280.311,242.65l.206.368H272.5L253.013,231.74,289.2,210.849l.271-.152V189.925h-1.082v20.144L251.93,231.112l-3.356-1.938-.541.942,2.814,1.624L233.691,241.6l-3.366-1.948-.541.942,2.825,1.624L214.11,252.9l-.271.152v.693l-3.962-2.284-.541.931,4.5,2.609v9.644l-9.266-5.412-.541.942,9.807,5.661v1.342L198.567,276l-13.79-7.967-.541.931,13.206,7.674-15.154,8.778-13.8-7.956-.541.931,13.26,7.653-65.151,37.614H91.6l-44.087,25.5V332.925L265.958,206.833l.271-.152V189.46h-1.082v16.594L94.416,304.63H60.5L14.587,331.16c0,.433-.065.866-.087,1.3l46.339-26.747h31.7L46.7,332.178l-.271.152v17.449L19.371,365.4l.368,1.082,72.155-41.706H116.3l65.941-38.069,7.577,4.33-18.25,10.543a5.325,5.325,0,0,0-4.33.184,1.45,1.45,0,0,0,0,2.749,5.412,5.412,0,0,0,4.157.271l4.546,2.63-13.4,7.739-.271.152v14.18L87.932,372.39l-.271.152v20.9L70.938,403.1a5.326,5.326,0,0,0-4.146.271,2.046,2.046,0,0,0-.833.833H43.087c.325.357.649.725.985,1.082H65.915a1.569,1.569,0,0,0,.357.476l-13.779,7.988.833.769L67.4,406.389a5.326,5.326,0,0,0,4.146-.271c1.082-.649,1.288-1.645.476-2.392l16.453-9.5.271-.152v-20.9l74.276-42.886.271-.152v-14.18l13.671-7.923,26.227,15.154L111.182,376.33l-.271.152v22.937L66.2,425.223l.931.714,44.542-25.708.271-.162V377.131l92.331-53.309,11.766,6.8-16.139,9.32-.271.162v24.008L88.841,428.07l19.213,11.095a1.321,1.321,0,0,0-.087,2.262l-8.194,4.73,1.158.585,8.183-4.719a5.412,5.412,0,0,0,3.626-.152l13.519,7.8-8.519,4.925,1.245.53,9.439-5.412-14.7-8.551a1.245,1.245,0,0,0-.065-1.8l29.615-17.092.271-.162V410.048l105-60.616,13.844,8-94.258,54.414-.271.152v16.236L148.872,439.2l-.271.152v17.7l-9.872,5.694,1.353.465,100.449-58,.271-.152V388.334l37.582-21.7,1.007.585v24.019l14.927,8.659L276,410.47H263.144L160.909,469.505l1.472.39,101.055-58.343h12.9l19.1-11.03,13.833,7.988L276.988,427.1c-1.028.162-11.117.249-16.4.249h-.141l-80.911,46.6,1.591.325,79.6-45.841c2.165,0,16.128,0,16.734-.357L310.4,409.052l13.855,8-48.482,27.992H255.621l-32.754,19.094h-8.789l-21.519,12.426,1.656.292,20.176-11.636h8.789l32.711-19.062h20.122l49.272-28.446,26.628,15.37H317.363l-46.187,26.66a5.412,5.412,0,0,0-4.146.281,1.45,1.45,0,0,0,0,2.738,5.206,5.206,0,0,0,4.763,0c1.082-.65,1.277-1.645.465-2.392l45.4-26.206h65.6l-32.235,18.607H317.146L269.13,480.492l.541.931,47.767-27.569h31.7l-45.852,26.465.541.942,81.582-47.1h10.424l5.834,3.366-17.405,10.045a5.326,5.326,0,0,0-4.146.271,1.45,1.45,0,0,0,0,2.749,5.25,5.25,0,0,0,4.752,0c1.137-.649,1.288-1.645.476-2.392l17.405-10.045L426.363,451.8l1.2-.552-31.336-18.1h-.087L319.2,388.821c.8-.747.649-1.743-.476-2.392a5.25,5.25,0,0,0-4.752,0,1.45,1.45,0,0,0,0,2.749,5.325,5.325,0,0,0,4.146.271l75.867,43.633H354.079l-73.6-42.474V366.6l-1.007-.585,9.569-5.531,148.292,85.6.119.076H438l2.089-1.082h-2.349L290.161,359.855l13.855-8L436.072,428.1c1.082.628,18.769.271,26.487.076l2.793,1.613.985-.682-3.5-2.013h-.152c-9.482.238-24.961.455-26.076.076L305.131,351.239l12.091-6.982a2.577,2.577,0,0,0,.552.433,5.326,5.326,0,0,0,4.146.271l115.138,66.483.13.065H465.1l13.736,8.01.866-.747-14.223-8.216-.13-.076h-27.9L334.194,350.871h30.968l60.67,35.027c-.812.747-.649,1.743.476,2.392a5.25,5.25,0,0,0,4.752,0,1.45,1.45,0,0,0,0-2.738,5.282,5.282,0,0,0-4.146-.281l-61.33-35.46-.13-.076H332.322l-9.352-5.412c.812-.747.649-1.743-.476-2.392a4.176,4.176,0,0,0-.747-.314l34.995-20.209,115.9,66.916v16.659ZM464.692,311.709l-6.852-3.962,6.852-3.951Zm19.267-36.727v16.442l-27.2,15.706L442.513,298.9Zm-156.1,44.639-13.855-8,14.6-8.432,1.7.974.13.076h.152c7.837-.195,19.754-.379,24.29-.227Zm-85.089-19.289-19.484,11.225v-2.371l-24.181-13.952,29.225-16.908v13.714Zm-10.9-23.987L258.1,291.5l-14.234,8.226-14.353-8.281V277.721Zm-2.36.108v-1.472l1.277.736Zm20.923,41.132a4.5,4.5,0,0,0-1.656-.52v-4.092l7.934-4.579,30.373,17.535L274.1,333.4l-23.164-13.465c.8-.725.649-1.721-.476-2.371Zm36.4-20.382H273.979l-1.927,1.082-11.766-6.8,8.356-4.817Zm-17.113-11.138,12.989-7.469h3.312l31.141,17.979-1.082.628H289.025Zm1.245,12.87-14.234,8.226-11.766-6.8,14.234-8.226Zm-15.316,8.843-6.808,3.929V303.8Zm2.165,0,14.234-8.216L302.436,317.1l-14.245,8.216Zm15.316-8.843,1.082-.649h14.461l23.142,13.368-8.345,4.817Zm17.741-.649h25.448l1.883-1.082,9.341,5.412-14.6,8.432Zm28.414-1.71L337.1,286.294h18.4l.13.076-27.061,15.6Zm-1.082-.628-30.07-17.319h28.4l1.829-1.082,15.035,8.659.119.076h1.407Zm.162-19.657-15.858-9.157,20.35-11.744,15.825,9.114Zm-1.082.617-1.082.606H286.221l-.855-.5,16.02-9.255Zm-48.644,8.54L242.416,270.3,260.221,260a2.089,2.089,0,0,0,.823.8,5.25,5.25,0,0,0,4.752,0,2.013,2.013,0,0,0,.844-.833h21.324l12.383,7.155Zm-1.082.617-8.356,4.828L232.977,275.74l8.356-4.828Zm-44.206,26.768,20.566-11.907,3.843,2.219v9.211l-19.938,11.506L223.4,321.3Zm24.365.779v3.431a4.882,4.882,0,0,0-2.024.552,1.45,1.45,0,0,0,0,2.749,5.412,5.412,0,0,0,4.157.271l23.24,13.389-13.844,8L228.864,324.46Zm26.454,21.053,13.855,8-13.855,8-13.844-8Zm1.082-.628,12.989-7.469,6.17,3.561.541-.942-5.629-3.247,14.245-8.216,13.844,7.988-28.251,16.323ZM304.6,317.1l8.345-4.817,13.855,7.988-8.356,4.828Zm78.151-13.909c-7.176-.184-22.937-.509-25.978,0-3.063-.465-18.823-.141-25.978,0l-1.017-.6,27.061-15.609L383.9,302.6Zm11.452-6.614-9.352,5.412-27.061-15.6.141-.076h18.4Zm-37.463-21.649,17.773,10.261H357.672l-.931.53-.8-.465-.119-.065H338.979Zm-1.082-.628L336.814,285.19h-3l-14.364-8.3,20.317-11.755Zm-25-23.435v-17.46l44.2-25.5a5.412,5.412,0,0,0,3.637,0l27.375,15.814a1.3,1.3,0,0,0-.065,2.046l-66.028,38.1-15.858-9.146,6.44-3.724Zm-1.082-16.821v16.236l-6.711,3.875-14.017-8.1Zm-21.811,12.6,14.017,8.1-20.35,11.744-13.043-7.577-.13-.076h-1.689Zm-55.875-14.321L272.2,244.058H303.27l3.41,1.959-21.486,12.4h-18.9a2.729,2.729,0,0,0-.5-.379,5.325,5.325,0,0,0-4.146-.271l-26.877-15.555Zm-37.008,21.367,18.769-10.824,26.92,15.544a1.754,1.754,0,0,0-.271.3l-18.964,10.954-26.454-15.273Zm0,1.948,25.372,14.645-8.356,4.817-17.016-9.828Zm-.271,12.34.271-.152v-1.342l13.574,7.837v2.728l-30.308,17.524-6.137-3.55,16.236-9.4-8.659-4.99Zm-31.282,18.066,15.154-8.778,7.577,4.33L190.9,290.375Zm-10.911,18.1a1.266,1.266,0,0,0,.119-1.905l18.336-10.586,6.137,3.55-20.047,11.571Zm5.629,3.247,20.047-11.571,24.181,13.952v2.371l-18,10.391Zm27.31,15.793,16.918-9.742v8.475l4.427,2.555L217.119,330Zm-62.586,86.085-.271.162v12.091l-29.821,17.211a5.628,5.628,0,0,0-3.41-.141L91.006,428.07l109.433-63.181.271-.152V340.718l16.41-9.471L247.5,348.782Zm75.467-78.649,9.579-5.531,30.351,17.579-9.579,5.531ZM249.7,348.782l9.579-5.531,13.844,8-9.612,5.488Zm-9.634,38.762-.271.162v16.659L149.76,456.321v-16.41L215.1,402.2l-.541-.931-45.57,26.3V412.635l94.528-54.576,13.833,7.988ZM278.428,365.4l-13.833-7.988,9.579-5.52L288,359.866Zm10.651-6.159-13.823-7.977,13.855-8,13.855,7.977Zm30.5-17.828a4.689,4.689,0,0,0-1.84.541,1.689,1.689,0,0,0-.974,1.31l-12.718,7.35-13.855-7.945,28.251-16.312,1.137.649Zm1.082-.4V326.344l-1.137-.66,8.356-4.817h27.591Z" transform="translate(-14.403 -189.438)" fill="#407bff"/>
        <path id="Path_1351" data-name="Path 1351" d="M67.789,266.907,25.358,291.4c-.314.606-.639,1.2-.942,1.8l44.6-25.751H99.753l14.992,8.659-10.3,5.943a5.337,5.337,0,0,0-4.146.271,2.165,2.165,0,0,0-.833.833H60.494L18.506,307.39c-.162.509-.325,1.017-.476,1.526l42.734-24.679h38.7a2.046,2.046,0,0,0,.833.833,5.271,5.271,0,0,0,4.763,0c1.082-.65,1.277-1.645.465-2.392l10.3-5.953,7.9,4.568.541-.942-7.36-4.243,17.167-9.9,7.891,4.568.541-.942-7.36-4.243,19.375-11.192,7.9,4.568.541-.942-7.361-4.243,8.356-4.828,3.767,2.165.541-.942-3.247-1.862,11.907-6.852-.541-.931L164,247.683l-14.375-8.3c.877-.747.747-1.786-.411-2.457a5.412,5.412,0,0,0-4.254-.238l-1.082-.639V218.361L131,211l-1.321.5,12.989,7.523v16.442L113.035,218.3l-1.2.552,32.051,18.509c-.736.736-.563,1.7.53,2.327a5.3,5.3,0,0,0,4.037.314l14.429,8.324-8.356,4.817-51.87-29.94-1.147.585,51.956,29.983L134.1,264.948,109.127,250.53l-.13-.076H87.273a2.165,2.165,0,0,0-.779-.736,5.347,5.347,0,0,0-4.037-.3L70.387,242.39l-.953.693,11.907,6.884c-.877.758-.747,1.786.411,2.457a5.271,5.271,0,0,0,4.763,0,1.981,1.981,0,0,0,.877-.931h21.3l24.3,14.072-17.167,9.9-15.782-9.1H68.98l-16.42-9.482-.823.779Z" transform="translate(-14.112 -187.663)" fill="#407bff"/>
        <path id="Path_1352" data-name="Path 1352" d="M80.133,233.251a5.271,5.271,0,0,0,4.763,0,1.45,1.45,0,0,0,0-2.749,4.99,4.99,0,0,0-2.6-.541l-3.128,1.851a1.613,1.613,0,0,0,.963,1.44Z" transform="translate(-9.072 -186.101)" fill="#407bff"/>
      </g>
      <g id="freepik--Shadows--inject-6" transform="translate(120.932 409.537)">
        <ellipse id="freepik--Shadow--inject-6" cx="28.305" cy="16.345" rx="28.305" ry="16.345" transform="translate(235.828 7.609)" opacity="0.2"/>
        <ellipse id="freepik--shadow--inject-6-2" data-name="freepik--shadow--inject-6" cx="28.305" cy="16.345" rx="28.305" ry="16.345" transform="translate(0 0)" opacity="0.2"/>
      </g>
      <g id="freepik--Stage--inject-6" transform="translate(110.324 61.44)">
        <g id="freepik--stage--inject-6-2" data-name="freepik--stage--inject-6" transform="translate(0 117.862)">
          <path id="Path_1395" data-name="Path 1395" d="M418.32,300.652,269.053,386.759a15.338,15.338,0,0,1-13.909,0l-149.234-86.1c-1.927-1.082-2.89-2.544-2.89-4.016a4.113,4.113,0,0,1,1.526-3.02,6.809,6.809,0,0,1,1.364-.985l149.267-86.085a15.36,15.36,0,0,1,13.909,0L418.32,292.62C422.152,294.85,422.152,298.455,418.32,300.652Z" transform="translate(-103.02 -167.478)" opacity="0.2"/>
          <path id="Path_1396" data-name="Path 1396" d="M262.115,343.2V372.21a14.18,14.18,0,0,1-6.927-1.634L105.91,284.447c-1.927-1.082-2.89-2.565-2.89-4.016V255.341a4.113,4.113,0,0,1,1.526-3.031l21.594,12.469Z" transform="translate(-103.02 -163.57)" fill="#407bff"/>
          <path id="Path_1397" data-name="Path 1397" d="M262.115,343.2V372.21a14.18,14.18,0,0,1-6.927-1.634L105.91,284.447c-1.927-1.082-2.89-2.565-2.89-4.016V255.341a4.113,4.113,0,0,1,1.526-3.031l21.594,12.469Z" transform="translate(-103.02 -163.57)" fill="#fff" opacity="0.5"/>
          <path id="Path_1398" data-name="Path 1398" d="M250,343.2v29.009a14.191,14.191,0,0,0,6.938-1.635L406.2,284.448c1.927-1.082,2.89-2.565,2.89-4.016v-25.1a4.113,4.113,0,0,0-1.526-3.031l-21.594,12.47Z" transform="translate(-90.905 -163.57)" fill="#407bff"/>
          <path id="Path_1399" data-name="Path 1399" d="M250,343.2v29.009a14.191,14.191,0,0,0,6.938-1.635L406.2,284.448c1.927-1.082,2.89-2.565,2.89-4.016v-25.1a4.113,4.113,0,0,0-1.526-3.031l-21.594,12.47Z" transform="translate(-90.905 -163.57)" fill="#fff" opacity="0.65"/>
          <path id="Path_1400" data-name="Path 1400" d="M418.32,266.092,269.053,352.21a15.435,15.435,0,0,1-13.909,0L105.91,266.1c-1.927-1.082-2.89-2.533-2.89-4a4.113,4.113,0,0,1,1.526-3.031,6.809,6.809,0,0,1,1.364-.985L255.177,172a15.36,15.36,0,0,1,13.909,0L418.32,258.071C422.152,260.29,422.152,263.906,418.32,266.092Z" transform="translate(-103.02 -170.327)" fill="#407bff"/>
          <path id="Path_1401" data-name="Path 1401" d="M418.32,266.092,269.053,352.21a15.435,15.435,0,0,1-13.909,0L105.91,266.1c-1.927-1.082-2.89-2.533-2.89-4a4.113,4.113,0,0,1,1.526-3.031,6.809,6.809,0,0,1,1.364-.985L255.177,172a15.36,15.36,0,0,1,13.909,0L418.32,258.071C422.152,260.29,422.152,263.906,418.32,266.092Z" transform="translate(-103.02 -170.327)" fill="#fff" opacity="0.8"/>
          <path id="Path_1402" data-name="Path 1402" d="M262.115,172.051a12.654,12.654,0,0,1,6.1,1.44l149.223,86.064c1.288.747,2.013,1.667,2.013,2.544s-.736,1.775-2,2.511L268.187,350.738a13.714,13.714,0,0,1-12.188,0L106.765,264.61c-1.288-.725-2.024-1.645-2.024-2.511a2.5,2.5,0,0,1,.974-1.764,5.3,5.3,0,0,1,1.082-.758l149.277-86.085a12.394,12.394,0,0,1,6.083-1.44m0-1.721A14.071,14.071,0,0,0,255.209,172l-149.3,86.085a6.493,6.493,0,0,0-1.364.985,4.113,4.113,0,0,0-1.526,3.031c0,1.472.963,2.912,2.89,4L255.144,352.21a15.435,15.435,0,0,0,13.909,0L418.32,266.092c3.832-2.165,3.832-5.8,0-8.021L269.086,172a14.2,14.2,0,0,0-6.96-1.667Z" transform="translate(-103.02 -170.327)" fill="#fff"/>
          <path id="Path_1403" data-name="Path 1403" d="M255.108,188.085,133.877,258.031c-2.565,1.483-2.565,3.875,0,5.358l121.232,69.936a10.207,10.207,0,0,0,9.266,0L385.66,263.378c2.565-1.483,2.565-3.875,0-5.358L264.374,188.085A10.207,10.207,0,0,0,255.108,188.085Z" transform="translate(-100.635 -168.955)" fill="#f8f0fa"/>
          <path id="Path_1404" data-name="Path 1404" d="M375.9,258.04,254.643,188.083A9.493,9.493,0,0,0,250.01,187v4.709L375.1,263.852l.8-.465C378.461,261.915,378.461,259.523,375.9,258.04Z" transform="translate(-90.904 -168.953)" fill="#37474f"/>
          <path id="Path_1405" data-name="Path 1405" d="M259.731,187a9.493,9.493,0,0,0-4.633,1.082L133.867,258.029c-2.565,1.483-2.565,3.875,0,5.358l.8.465,125.063-72.144Z" transform="translate(-100.636 -168.953)" fill="#263238"/>
        </g>
        <g id="freepik--Light--inject-6" transform="translate(31.244)">
          <g id="Group_324" data-name="Group 324" transform="translate(127.81)" opacity="0.5">
            <path id="Path_1406" data-name="Path 1406" d="M258.391,311.086a14.905,14.905,0,0,1-8.519,2h0V329.92a10.6,10.6,0,0,0,5.715-1.7l118.9-68.626c2.219-1.223,3.247-2.306,3.247-3.788V242.2Z" transform="translate(-249.848 -46.541)" fill="#407bff" opacity="0.3"/>
            <path id="Path_1407" data-name="Path 1407" d="M258.389,297.175a14.743,14.743,0,0,1-8.519,2h0v16.832a10.6,10.6,0,0,0,5.715-1.7l118.9-68.626c2.219-1.223,3.247-2.295,3.247-3.778V228.3Z" transform="translate(-249.846 -47.686)" fill="#407bff" opacity="0.277"/>
            <path id="Path_1408" data-name="Path 1408" d="M258.391,283.243a14.905,14.905,0,0,1-8.519,2c-.054,0,0,0,0,0h0v16.832a10.6,10.6,0,0,0,5.715-1.7l118.9-68.593c2.219-1.223,3.247-2.306,3.247-3.788V214.39Z" transform="translate(-249.848 -48.833)" fill="#407bff" opacity="0.254"/>
            <path id="Path_1409" data-name="Path 1409" d="M258.389,269.365a14.743,14.743,0,0,1-8.519,2h0V288.2a10.673,10.673,0,0,0,5.715-1.689l118.9-68.637c2.219-1.223,3.247-2.295,3.247-3.778V200.49Z" transform="translate(-249.846 -49.979)" fill="#407bff" opacity="0.231"/>
            <path id="Path_1410" data-name="Path 1410" d="M258.391,255.466a14.9,14.9,0,0,1-8.519,2h0V274.3a10.6,10.6,0,0,0,5.715-1.7l118.9-68.626c2.219-1.223,3.247-2.295,3.247-3.788V186.58Z" transform="translate(-249.848 -51.125)" fill="#407bff" opacity="0.208"/>
            <path id="Path_1411" data-name="Path 1411" d="M258.389,241.566a14.818,14.818,0,0,1-8.519,1.992h0v16.832a10.673,10.673,0,0,0,5.715-1.689l118.9-68.637c2.219-1.212,3.247-2.295,3.247-3.778V172.68Z" transform="translate(-249.846 -52.271)" fill="#407bff" opacity="0.185"/>
            <path id="Path_1412" data-name="Path 1412" d="M258.391,227.656a14.818,14.818,0,0,1-8.519,2h0V246.49a10.6,10.6,0,0,0,5.715-1.7l118.9-68.626c2.219-1.223,3.247-2.295,3.247-3.778V158.77Z" transform="translate(-249.848 -53.417)" fill="#407bff" opacity="0.162"/>
            <path id="Path_1413" data-name="Path 1413" d="M258.389,213.756a14.819,14.819,0,0,1-8.519,1.992h0v16.832a10.673,10.673,0,0,0,5.715-1.689l118.9-68.637c2.219-1.212,3.247-2.295,3.247-3.778V144.87Z" transform="translate(-249.846 -54.563)" fill="#407bff" opacity="0.138"/>
            <path id="Path_1414" data-name="Path 1414" d="M258.391,199.842a14.743,14.743,0,0,1-8.519,2h0v16.832a10.6,10.6,0,0,0,5.715-1.7l118.9-68.658c2.219-1.223,3.247-2.295,3.247-3.778V131Z" transform="translate(-249.848 -55.706)" fill="#407bff" opacity="0.115"/>
            <path id="Path_1415" data-name="Path 1415" d="M258.391,185.946a14.818,14.818,0,0,1-8.519,1.992c-.054,0,0,0,0,0h0v16.832a10.673,10.673,0,0,0,5.715-1.689l118.9-68.637c2.219-1.212,3.247-2.295,3.247-3.778V117.06Z" transform="translate(-249.848 -56.855)" fill="#407bff" opacity="0.092"/>
            <path id="Path_1416" data-name="Path 1416" d="M258.391,172.035a14.743,14.743,0,0,1-8.519,2c-.054,0,0,0,0,0h0v16.832a10.6,10.6,0,0,0,5.715-1.7l118.9-68.626c2.219-1.223,3.247-2.295,3.247-3.778V103.16Z" transform="translate(-249.848 -58.001)" fill="#407bff" opacity="0.069"/>
            <path id="Path_1417" data-name="Path 1417" d="M258.391,158.136a14.905,14.905,0,0,1-8.519,2h0v16.843a10.684,10.684,0,0,0,5.715-1.7l118.9-68.637c2.219-1.223,3.247-2.306,3.247-3.788V89.25Z" transform="translate(-249.848 -59.148)" fill="#407bff" opacity="0.046"/>
            <path id="Path_1418" data-name="Path 1418" d="M258.389,144.246a14.743,14.743,0,0,1-8.519,2h0v16.832a10.6,10.6,0,0,0,5.715-1.7l118.9-68.647c2.219-1.223,3.247-2.295,3.247-3.778V75.35Z" transform="translate(-249.846 -60.293)" fill="#407bff" opacity="0.023"/>
            <path id="Path_1419" data-name="Path 1419" d="M258.391,130.326a14.905,14.905,0,0,1-8.519,2c-.054,0,0,0,0,0h0V149.16a10.6,10.6,0,0,0,5.715-1.7l118.9-68.626c2.219-1.223,3.247-2.306,3.247-3.788V61.44Z" transform="translate(-249.848 -61.44)" fill="#407bff" opacity="0"/>
          </g>
          <g id="Group_325" data-name="Group 325" opacity="0.7">
            <path id="Path_1420" data-name="Path 1420" d="M251.085,311.086a14.927,14.927,0,0,0,8.53,2s-.054,0,0,0h0V329.92a10.564,10.564,0,0,1-5.715-1.7L135.027,259.595c-2.219-1.223-3.247-2.306-3.247-3.788V242.2Z" transform="translate(-131.769 -46.541)" fill="#fcf9fd" opacity="0.5"/>
            <path id="Path_1421" data-name="Path 1421" d="M251.085,297.175a14.753,14.753,0,0,0,8.53,2h0v16.832a10.564,10.564,0,0,1-5.715-1.7L135.027,245.684c-2.219-1.223-3.247-2.295-3.247-3.778V228.3Z" transform="translate(-131.769 -47.686)" fill="#fcf9fd" opacity="0.462"/>
            <path id="Path_1422" data-name="Path 1422" d="M251.085,283.243a14.927,14.927,0,0,0,8.53,2h0v16.832a10.564,10.564,0,0,1-5.715-1.7L135.027,231.752c-2.219-1.223-3.247-2.306-3.247-3.788V214.39Z" transform="translate(-131.769 -48.833)" fill="#fcf9fd" opacity="0.423"/>
            <path id="Path_1423" data-name="Path 1423" d="M251.086,269.365a14.753,14.753,0,0,0,8.53,2h0V288.2a10.641,10.641,0,0,1-5.715-1.689L135.017,217.874c-2.219-1.223-3.247-2.295-3.247-3.778V200.49Z" transform="translate(-131.77 -49.979)" fill="#fcf9fd" opacity="0.385"/>
            <path id="Path_1424" data-name="Path 1424" d="M251.085,255.466a14.927,14.927,0,0,0,8.53,2h0V274.3a10.565,10.565,0,0,1-5.715-1.7L135.027,203.975c-2.219-1.223-3.247-2.295-3.247-3.788V186.58Z" transform="translate(-131.769 -51.125)" fill="#fcf9fd" opacity="0.346"/>
            <path id="Path_1425" data-name="Path 1425" d="M251.086,241.566a14.829,14.829,0,0,0,8.53,1.992h0v16.832A10.64,10.64,0,0,1,253.9,258.7L135.017,190.064c-2.219-1.212-3.247-2.295-3.247-3.778V172.68Z" transform="translate(-131.77 -52.271)" fill="#fcf9fd" opacity="0.308"/>
            <path id="Path_1426" data-name="Path 1426" d="M251.085,227.656a14.84,14.84,0,0,0,8.53,2s-.054,0,0,0h0V246.49a10.565,10.565,0,0,1-5.715-1.7L135.027,176.165c-2.219-1.223-3.247-2.295-3.247-3.778V158.77Z" transform="translate(-131.769 -53.417)" fill="#fcf9fd" opacity="0.269"/>
            <path id="Path_1427" data-name="Path 1427" d="M251.086,213.756a14.829,14.829,0,0,0,8.53,1.992h0v16.832a10.64,10.64,0,0,1-5.715-1.689L135.017,162.254c-2.219-1.212-3.247-2.295-3.247-3.778V144.87Z" transform="translate(-131.77 -54.563)" fill="#fcf9fd" opacity="0.231"/>
            <path id="Path_1428" data-name="Path 1428" d="M251.086,199.842a14.753,14.753,0,0,0,8.53,2s-.054,0,0,0h0v16.832a10.565,10.565,0,0,1-5.715-1.7L135.017,148.319c-2.219-1.223-3.247-2.295-3.247-3.778V131Z" transform="translate(-131.77 -55.706)" fill="#fcf9fd" opacity="0.192"/>
            <path id="Path_1429" data-name="Path 1429" d="M251.086,185.946a14.829,14.829,0,0,0,8.53,1.992s-.054,0,0,0h0v16.832a10.64,10.64,0,0,1-5.715-1.689L135.017,134.444c-2.219-1.212-3.247-2.295-3.247-3.778V117.06Z" transform="translate(-131.77 -56.855)" fill="#fcf9fd" opacity="0.154"/>
            <path id="Path_1430" data-name="Path 1430" d="M251.085,172.035a14.753,14.753,0,0,0,8.53,2s-.054,0,0,0h0v16.832a10.564,10.564,0,0,1-5.715-1.7L135.027,120.544c-2.219-1.223-3.247-2.295-3.247-3.778V103.16Z" transform="translate(-131.769 -58.001)" fill="#fcf9fd" opacity="0.115"/>
            <path id="Path_1431" data-name="Path 1431" d="M251.085,158.136a14.927,14.927,0,0,0,8.53,2s-.054,0,0,0h0v16.843a10.662,10.662,0,0,1-5.715-1.7L135.027,106.655c-2.219-1.223-3.247-2.306-3.247-3.788V89.25Z" transform="translate(-131.769 -59.148)" fill="#fcf9fd" opacity="0.077"/>
            <path id="Path_1432" data-name="Path 1432" d="M251.086,144.246a14.753,14.753,0,0,0,8.53,2h0v16.832a10.564,10.564,0,0,1-5.715-1.7L135.017,92.734c-2.219-1.223-3.247-2.295-3.247-3.778V75.35Z" transform="translate(-131.77 -60.293)" fill="#fcf9fd" opacity="0.038"/>
            <path id="Path_1433" data-name="Path 1433" d="M251.086,130.326a14.927,14.927,0,0,0,8.53,2s-.054,0,0,0h0V149.16a10.564,10.564,0,0,1-5.715-1.7L135.017,78.835c-2.219-1.223-3.247-2.306-3.247-3.788V61.44Z" transform="translate(-131.77 -61.44)" fill="#fcf9fd" opacity="0"/>
          </g>
        </g>
      </g>
      <g id="freepik--Brain--inject-6" transform="translate(174.133 88.982)">
        <g id="freepik--brain--inject-6-2" data-name="freepik--brain--inject-6" transform="translate(0)">
          <path id="Path_1434" data-name="Path 1434" d="M339.694,205.243s3.615,3.6,1.082,10.272c-2.414,6.495-10.316,7.577-10.316,7.577s1.082,10.619-16.15,11.907a10.821,10.821,0,0,0,0-2.23s7.913-.314,8.032-12.6-9.092-14.18-9.092-14.18a11.268,11.268,0,0,0,1.429-9.872c-2.251-6.733-7.014-6.018-7.014-6.018s3.453-2.533,1.938-8.811c-1.407-5.834-5.791-6.592-5.791-6.592s3.247-5.8-2.674-13.639-12-6.624-12-6.624a17.654,17.654,0,0,0-4.2-10.5c-4.211-4.9-10.824-4.211-10.824-4.211a17.091,17.091,0,0,0-5.65-13.184c-6.3-5.953-12.621-5.683-12.621-5.683a10.088,10.088,0,0,0-4.254-8.778,11.593,11.593,0,0,0-11.409-1.634s-1.082-7.707-7.75-9.179c-8.714-1.905-12.989,3.247-12.989,3.247s-2.9-3.821-9.536-4.9a33.934,33.934,0,0,1,8.768-8.064C226.515,86.739,238.4,89.8,238.4,89.8a15.37,15.37,0,0,1,10.37-2.858,11.8,11.8,0,0,1,8.865,5.174s3.637-2.684,12.448-2.165S281,97.422,281,97.422a21.41,21.41,0,0,1,12.275,3.453c6.495,4.037,6.495,12.664,6.495,12.664s7.869-2.165,14.764,4.99,3.853,13.812,3.853,13.812a15.576,15.576,0,0,1,12.264,23,6.927,6.927,0,0,1,4.405,4.221c1.342,3.453,0,5.564,0,5.564s6.7,2.858,8.443,9.958-1.743,11.311-1.743,11.311a11.052,11.052,0,0,1,5.564,9.98C347.357,203.717,339.694,205.243,339.694,205.243Z" transform="translate(-158.02 -86.884)" fill="#407bff"/>
          <path id="Path_1435" data-name="Path 1435" d="M339.694,205.243s3.615,3.6,1.082,10.272c-2.414,6.495-10.316,7.577-10.316,7.577s1.082,10.619-16.15,11.907a10.821,10.821,0,0,0,0-2.23s7.913-.314,8.032-12.6-9.092-14.18-9.092-14.18a11.268,11.268,0,0,0,1.429-9.872c-2.251-6.733-7.014-6.018-7.014-6.018s3.453-2.533,1.938-8.811c-1.407-5.834-5.791-6.592-5.791-6.592s3.247-5.8-2.674-13.639-12-6.624-12-6.624a17.654,17.654,0,0,0-4.2-10.5c-4.211-4.9-10.824-4.211-10.824-4.211a17.091,17.091,0,0,0-5.65-13.184c-6.3-5.953-12.621-5.683-12.621-5.683a10.088,10.088,0,0,0-4.254-8.778,11.593,11.593,0,0,0-11.409-1.634s-1.082-7.707-7.75-9.179c-8.714-1.905-12.989,3.247-12.989,3.247a11.96,11.96,0,0,0-2.89-2.457c-.184-.119-.346-.216-.552-.325a17.211,17.211,0,0,0-6.094-2.165,33.934,33.934,0,0,1,8.768-8.021C226.515,86.739,238.4,89.8,238.4,89.8a15.37,15.37,0,0,1,10.37-2.858,11.8,11.8,0,0,1,8.865,5.174s3.637-2.684,12.448-2.165S281,97.422,281,97.422a21.41,21.41,0,0,1,12.275,3.453c6.495,4.037,6.495,12.664,6.495,12.664s7.869-2.165,14.764,4.99,3.853,13.812,3.853,13.812a15.576,15.576,0,0,1,12.264,23,6.927,6.927,0,0,1,4.405,4.221c1.342,3.453,0,5.564,0,5.564s6.7,2.858,8.443,9.958-1.743,11.311-1.743,11.311a11.052,11.052,0,0,1,5.564,9.98C347.357,203.717,339.694,205.243,339.694,205.243Z" transform="translate(-158.02 -86.884)" opacity="0.05"/>
          <path id="Path_1436" data-name="Path 1436" d="M316.268,204.065a13.173,13.173,0,0,0,.433-9.428c-1.288-3.843-3.453-5.823-5.477-6.754a12.026,12.026,0,0,0,.455-7.9,10.694,10.694,0,0,0-5.206-7.274c.66-2.728.877-7.761-3.626-13.714s-9.114-7.22-11.788-7.458a20.036,20.036,0,0,0-4.492-9.742,14.883,14.883,0,0,0-10.38-4.9,19.549,19.549,0,0,0-6.191-12.654,22.244,22.244,0,0,0-12.026-6.094,12.231,12.231,0,0,0-5.033-8.519,13.693,13.693,0,0,0-11.16-2.565c-.942-2.825-3.247-7.382-8.789-8.594-6.689-1.472-11.149.769-13.368,2.425A18.531,18.531,0,0,0,211.5,96.97a39.063,39.063,0,0,0-2.89,3.669c6.343.682,9.136,4.092,9.287,4.33a2.057,2.057,0,0,0,1.57.8,2.089,2.089,0,0,0,1.613-.7c.152-.173,3.734-4.178,11.03-2.565,5.174,1.082,6.148,7.209,6.181,7.458a2.067,2.067,0,0,0,2.89,1.57,9.514,9.514,0,0,1,9.32,1.429,8.064,8.064,0,0,1,3.453,6.9,2.057,2.057,0,0,0,.53,1.613,1.84,1.84,0,0,0,1.569.671c.206,0,5.607-.1,11.138,5.12a15.089,15.089,0,0,1,4.947,11.517,2.067,2.067,0,0,0,.585,1.645,2.089,2.089,0,0,0,1.656.6c.054,0,5.661-.5,9.082,3.485a15.814,15.814,0,0,1,3.7,9.168,2.057,2.057,0,0,0,.747,1.559,2.1,2.1,0,0,0,1.667.455c.206,0,5.012-.747,10.012,5.845s2.62,11.257,2.522,11.43a2.067,2.067,0,0,0-.054,1.851,2.1,2.1,0,0,0,1.472,1.158c.13,0,3.128.682,4.167,5.044,1.147,4.752-1.082,6.624-1.158,6.679a2.013,2.013,0,0,0-.671,2.381,2.078,2.078,0,0,0,2.165,1.3c.314,0,3.247-.173,4.806,4.622a9.19,9.19,0,0,1-1.082,8.01,2.057,2.057,0,0,0-.292,1.948,2.089,2.089,0,0,0,1.483,1.3c.314.065,7.577,1.8,7.49,12.145-.108,10.045-5.867,10.554-6.083,10.575a2.067,2.067,0,0,0-1.937,2.349,9.407,9.407,0,0,1,0,1.591,5.141,5.141,0,0,0,2.024.336,15.5,15.5,0,0,0,2.057-.238v-.4c2.89-1,7.858-4.167,7.967-14.169C324.581,210.495,320.013,205.927,316.268,204.065Z" transform="translate(-158.126 -86.053)" opacity="0.2"/>
          <path id="Path_1437" data-name="Path 1437" d="M318.24,231.835s7.913-.314,8.042-12.6-9.1-14.169-9.1-14.169a11.322,11.322,0,0,0,1.418-9.893c-2.23-6.722-7-6.007-7-6.007s3.453-2.533,1.938-8.811c-1.407-5.845-5.791-6.581-5.791-6.581s3.247-5.823-2.684-13.66-12-6.624-12-6.624a17.708,17.708,0,0,0-4.189-10.5c-4.2-4.893-10.824-4.189-10.824-4.189a17.2,17.2,0,0,0-5.574-13.206c-6.3-5.953-12.61-5.683-12.61-5.683a10.121,10.121,0,0,0-4.265-8.778,11.571,11.571,0,0,0-11.4-1.634s-1.082-7.707-7.772-9.179c-8.659-1.916-12.989,3.247-12.989,3.247s-5.888-7.793-20.068-4.33c-11.907,2.89-12.751,11.788-12.751,11.788s-12.21-2.284-17.806,6.1-3.853,19.235-3.853,19.235-6.992,4.9-6.646,12.242a22.244,22.244,0,0,0,3.507,11.549s-7,11.907-2.1,21.649a22.731,22.731,0,0,0,13.639,11.907s0,10.489,4.893,15.738,13.639,4.893,13.639,4.893a18.856,18.856,0,0,0,9.45,10.824c7.339,3.5,15.035.693,15.035.693a18.921,18.921,0,0,0,8.746,5.953c5.6,1.743,12.589,0,12.589,0a9.017,9.017,0,0,0,7.35,7.339c6.646,1.4,10.142-2.793,10.142-2.793s2.1,4.546,6.992,4.893a9.807,9.807,0,0,0,7.7-2.793s2.8,8.735,14.342,9.092,14.375-4.633,14.375-4.633,5.564,3.94,11.16-.26a11.982,11.982,0,0,0,4.481-10.824Z" transform="translate(-161.97 -85.939)" fill="#407bff"/>
          <path id="Path_1438" data-name="Path 1438" d="M318.24,231.835s7.913-.314,8.042-12.6-9.1-14.169-9.1-14.169a11.322,11.322,0,0,0,1.418-9.893c-2.23-6.722-7-6.007-7-6.007s3.453-2.533,1.938-8.811c-1.407-5.845-5.791-6.581-5.791-6.581s3.247-5.823-2.684-13.66-12-6.624-12-6.624a17.708,17.708,0,0,0-4.189-10.5c-4.2-4.893-10.824-4.189-10.824-4.189a17.2,17.2,0,0,0-5.574-13.206c-6.3-5.953-12.61-5.683-12.61-5.683a10.121,10.121,0,0,0-4.265-8.778,11.571,11.571,0,0,0-11.4-1.634s-1.082-7.707-7.772-9.179c-8.659-1.916-12.989,3.247-12.989,3.247s-5.888-7.793-20.068-4.33c-11.907,2.89-12.751,11.788-12.751,11.788s-12.21-2.284-17.806,6.1-3.853,19.235-3.853,19.235-6.992,4.9-6.646,12.242a22.244,22.244,0,0,0,3.507,11.549s-7,11.907-2.1,21.649a22.731,22.731,0,0,0,13.639,11.907s0,10.489,4.893,15.738,13.639,4.893,13.639,4.893a18.856,18.856,0,0,0,9.45,10.824c7.339,3.5,15.035.693,15.035.693a18.921,18.921,0,0,0,8.746,5.953c5.6,1.743,12.589,0,12.589,0a9.017,9.017,0,0,0,7.35,7.339c6.646,1.4,10.142-2.793,10.142-2.793s2.1,4.546,6.992,4.893a9.807,9.807,0,0,0,7.7-2.793s2.8,8.735,14.342,9.092,14.375-4.633,14.375-4.633,5.564,3.94,11.16-.26a11.982,11.982,0,0,0,4.481-10.824Z" transform="translate(-161.97 -85.939)" fill="#fff" opacity="0.2"/>
          <g id="Group_326" data-name="Group 326" transform="translate(3.926 26.111)" opacity="0.05">
            <path id="Path_1439" data-name="Path 1439" d="M223.212,130.174a34.831,34.831,0,0,0-4.33-6.495c-1.245-1.418-3.247-3.518-5.293-3.247-.606.065-.216,1.082.216,1.082,1.894.336,3.247,1.948,4.265,3.431a42.78,42.78,0,0,1,2.987,5.033,34.637,34.637,0,0,1,4.146,14.786c.173,4.33-.888,8.757-5.033,10.9-4.86,2.511-11.138.92-15.717-1.418a12.816,12.816,0,0,1-7.285-9.742c-.076-.541-.92-1-.9-.206a13.076,13.076,0,0,0,1.689,6.679,13.736,13.736,0,0,0,4.968,4.514c4.7,2.749,10.391,4.33,15.793,2.933C231.373,155.2,227.747,138.584,223.212,130.174Z" transform="translate(-163.069 -110.232)"/>
            <path id="Path_1440" data-name="Path 1440" d="M209.285,136.521a11.69,11.69,0,0,0-1.743-4.958,15.89,15.89,0,0,0-3.453-4,12.5,12.5,0,0,0-4.676-2.717c-.747-.195-.693.855-.238,1.147a27.277,27.277,0,0,1,3.994,2.663,14.6,14.6,0,0,1,2.933,3.68,10.9,10.9,0,0,1,1.277,4.254,11.062,11.062,0,0,1-.076,2.392c-.108.758-.3,1.472-.422,2.23-.054.346.39,1.082.779.693a6.9,6.9,0,0,0,1.624-5.38Z" transform="translate(-162.857 -109.869)"/>
            <path id="Path_1441" data-name="Path 1441" d="M216.728,112.2a34.735,34.735,0,0,0-11.809-1.082,21.486,21.486,0,0,0-10.467,3.669c-5.51,3.648-9.644,9.071-10.684,15.684-.574,3.648-.888,8.216,2.338,10.824.39.3,1.082.13.877-.465a15.23,15.23,0,0,1-1.256-6.495,29.127,29.127,0,0,1,.866-5.629,20.436,20.436,0,0,1,6.127-9.677,21.9,21.9,0,0,1,10.987-5.867,28.653,28.653,0,0,1,6.6-.162,36.489,36.489,0,0,0,6.6.314C217.507,113.283,217.107,112.309,216.728,112.2Z" transform="translate(-164.13 -111.007)"/>
            <path id="Path_1442" data-name="Path 1442" d="M193.6,150.5c-3.312-5.315-9.59-9.558-15.966-9.428-5,.1-12.708,2.89-11.993,9.136a11.2,11.2,0,0,0,4.871,7.7,4.07,4.07,0,0,0,4.016.227c1.494-.855,1.645-2.739,2.046-4.221.065-.238-.206-.769-.476-.476-1.234,1.321-2.435,4.568-4.719,2.955a9.883,9.883,0,0,1-3.572-5.672c-.9-4.817,4.665-7.144,8.5-7.685,5.336-.769,10.24,2.046,13.714,5.91,2.251,2.511,5.217,7.718,1.559,10.316a5.564,5.564,0,0,1-4.156.974c-1.689-.325-1.851-1.624-2.165-3.1-.162-.725-1.472-1.028-1.721-.227a3.875,3.875,0,0,0,2.046,4.579,7.187,7.187,0,0,0,5.466.26,6.365,6.365,0,0,0,4.092-3.54C196.092,155.7,194.934,152.641,193.6,150.5Z" transform="translate(-165.597 -108.529)"/>
            <path id="Path_1443" data-name="Path 1443" d="M241.39,209.581c-2.793-5.412-8.01-9.082-13.379-11.571-.9-.411-1.8-.8-2.706-1.158a15.587,15.587,0,0,0,2.739-3.247A27.732,27.732,0,0,0,231.6,185.9a9.439,9.439,0,0,0-1.017-7.913,8.464,8.464,0,0,0-3.042-2.793c-1.223-.649-3.3-1.364-4.654-.747-.541.249.065,1.082.422,1.137,1.4.336,2.619.346,3.843,1.223a6.224,6.224,0,0,1,2.219,3.052,9.579,9.579,0,0,1-.26,6.267,27.365,27.365,0,0,1-3.063,6.3,13.864,13.864,0,0,1-2.165,2.6,6.658,6.658,0,0,1-1.288.855c-4.611-1.613-9.374-2.814-14.072-4.33-6.765-2.165-12.989-5.488-17.73-10.824a23.24,23.24,0,0,1-5.921-11.16,24.246,24.246,0,0,1-.325-5.315c.065-1.45.184-3.366,1.256-4.47.509-.53-.465-1.6-1.082-1.212-2.241,1.45-2.165,5.055-2.165,7.425a21.952,21.952,0,0,0,2.684,10.727,35.72,35.72,0,0,0,15.825,14.515c11.236,5.412,25.534,5.488,34.638,14.927a17.319,17.319,0,0,1,4.838,8.789,13.942,13.942,0,0,1,0,5.52c-.379,1.721-1.472,2.955-2.024,4.557-.152.422.455,1.18.909.953,2.652-1.266,3.583-4.86,3.778-7.577a16.994,16.994,0,0,0-1.818-8.822Z" transform="translate(-164.199 -107.094)"/>
            <path id="Path_1444" data-name="Path 1444" d="M226.445,207.185c-3.074-2.219-6.83-2.771-10.435-3.594s-7.22-1.559-10.759-2.63a46.386,46.386,0,0,1-5.185-1.894c-2.425-1.082-4.535-2.63-6.917-3.7a.52.52,0,0,0-.725.682c.714,1.526,2.544,2.652,3.94,3.507a27.6,27.6,0,0,0,4.395,2.165,68.5,68.5,0,0,0,9.915,2.912c4.048.931,8.443,1.4,12.34,2.836a13.085,13.085,0,0,1,3.345,1.84c1.234.909,3.042,2.327,3.171,3.962,0,.53.953,1.017,1.082.271C230.937,210.812,228.491,208.668,226.445,207.185Z" transform="translate(-163.39 -104.059)"/>
            <path id="Path_1445" data-name="Path 1445" d="M179.207,180.513a21.258,21.258,0,0,0-4.167-5.412c-2.165-2.37-3.756-4.86-3.745-8.226a28.7,28.7,0,0,1,.682-5.261c.336-1.786.909-3.843.206-5.585-.119-.3-.552-.552-.758-.195a8.346,8.346,0,0,0-.628,2.63c-.141.823-.292,1.624-.455,2.435a38.491,38.491,0,0,0-.779,4.838,11.907,11.907,0,0,0,2.457,8.2c1.375,1.8,3.074,3.3,4.427,5.12a7.425,7.425,0,0,1,1.375,2.739c.39,1.689-.184,3.247-.563,4.893,0,.249.206,1,.563.671a5.921,5.921,0,0,0,1.385-6.852Z" transform="translate(-165.273 -107.327)"/>
            <path id="Path_1446" data-name="Path 1446" d="M300.187,170.2a21.649,21.649,0,0,0-4.676,2.165,15.218,15.218,0,0,1-5.412,1.483c-3.356.26-6.614-.833-9.958-.812a10.272,10.272,0,0,0-7.761,3.431,12.924,12.924,0,0,0-1.927,2.652c-.671-.747-1.375-1.483-2.111-2.165a27.851,27.851,0,0,0-9.569-5.845,59.6,59.6,0,0,0-12.242-2.544c-3.745-.5-7.371-.974-10.824-2.7-2.836-1.429-6.137-3.431-6.992-6.722-.152-.552-1.082-.725-.974,0,.238,2.836,2.36,4.979,4.492,6.646a21.031,21.031,0,0,0,7.967,3.843c7.577,1.786,15.652,1.58,22.374,5.986a24.9,24.9,0,0,1,11.2,16.475c1.007,5.7,1.45,12.827-3.052,17.2a48.255,48.255,0,0,1-10.651,7.5c-.9.487-1.883,1.082-2.836,1.678a25.693,25.693,0,0,0,1.028-5.217,27.136,27.136,0,0,0-.909-10.759,24.452,24.452,0,0,0-5.12-8.887c-2.728-3.052-6.127-5.066-9.4-7.469a22.732,22.732,0,0,1-5.12-4.968c-1.624-2.165-2.977-4.654-4.416-6.982-.281-.455-.606.141-.455.476,1.645,3.659,3.247,7.339,6.007,10.326s6.289,4.925,9.255,7.577a24.192,24.192,0,0,1,8.053,18.022,22.894,22.894,0,0,1-.758,6.495c-.39,1.44-.985,2.814-1.418,4.232a6.6,6.6,0,0,0-1.472,3.117c-.087.541.844,1.375,1.288.823a24.487,24.487,0,0,1,3.81-4.037,29.043,29.043,0,0,1,4.33-2.641,50.1,50.1,0,0,0,9.742-6.689,14.645,14.645,0,0,0,4.893-7.75,27.483,27.483,0,0,0,.379-9.363,29.918,29.918,0,0,0-2.165-9.157,25.01,25.01,0,0,0-2.4-4.092,9.656,9.656,0,0,1,.671-1.754,11.258,11.258,0,0,1,2.457-2.8c2.262-1.883,5.25-1.7,8-1.331,3.161.433,6.3.866,9.439,0a19.311,19.311,0,0,0,4.438-1.808,11.539,11.539,0,0,0,3.54-2.587C301.2,170.858,300.675,170.09,300.187,170.2Z" transform="translate(-160.476 -107.079)"/>
            <path id="Path_1447" data-name="Path 1447" d="M289.951,161.9c-1.851-4.384-6.668-6.235-10.824-7.718a60.766,60.766,0,0,1-13.4-6.137,22.579,22.579,0,0,1-5.207-4.622,19.538,19.538,0,0,1-3.788-9.991c-.076-.585-1.418-1.191-1.57-.379-1.678,9.017,5.759,15.5,12.989,19.2a110.863,110.863,0,0,0,12.069,4.763c3.3,1.266,8.443,3.81,7.718,8.2-.346,2.165-2.316,2.8-4.167,3.247a30.308,30.308,0,0,1-7.577.628,72.1,72.1,0,0,1-15.544-2.511A36.932,36.932,0,0,1,238.1,149.83a35.233,35.233,0,0,1-4.784-15.847,38.2,38.2,0,0,1,.433-8.313c.487-3.247,1.082-6.776,2.977-9.558.119-.184,0-.736-.3-.5a12.5,12.5,0,0,0-3.117,6.289,57.259,57.259,0,0,0-1.418,7.4,34.767,34.767,0,0,0,1.948,16.453,38.61,38.61,0,0,0,20.3,20.9,63.311,63.311,0,0,0,14.937,3.853c5.412.866,11.127,1.245,16.453-.227a6.614,6.614,0,0,0,4.514-3.247A6.235,6.235,0,0,0,289.951,161.9Z" transform="translate(-160.154 -110.632)"/>
            <path id="Path_1448" data-name="Path 1448" d="M271.161,160.457c-1.927-.66-4.027-.866-5.975-1.5a42.513,42.513,0,0,1-5.813-2.262,26.444,26.444,0,0,1-8.746-7.09,25.978,25.978,0,0,1-5.445-11.095c-.79-4.33.4-8.486.639-12.773,0-.357-.606-1.234-.866-.6a26.422,26.422,0,0,0-1.818,14.753,26.693,26.693,0,0,0,5.845,11.387,25.3,25.3,0,0,0,9.742,7.4,38.967,38.967,0,0,0,6.495,1.959c1.818.39,4.33,1.158,6.159.628C271.669,161.171,271.5,160.554,271.161,160.457Z" transform="translate(-159.235 -109.861)"/>
            <path id="Path_1449" data-name="Path 1449" d="M300.131,191.5c-4.124-3.853-11.571-5-12.881-11.376-.087-.39-.833-.812-.9-.195-.465,5.315,5.845,8.659,9.677,10.987a11.907,11.907,0,0,1,5.206,5.878c1.256,3.085.812,5.975-.249,9.017-.119.368.3.953.682.693C306.821,202.946,303.768,194.9,300.131,191.5Z" transform="translate(-155.646 -105.351)"/>
            <path id="Path_1450" data-name="Path 1450" d="M310.17,214.026c-2.219,1.981-4.416,3.5-7.469,3.626a14.667,14.667,0,0,1-7.447-1.8A8.053,8.053,0,0,1,290.6,209.7a12.989,12.989,0,0,1,.281-4.838,27.182,27.182,0,0,0,.985-4.709l.217.162a12.989,12.989,0,0,1,3.02,4.265c.13.227.671.563.866.195.931-1.743-.422-3.615-1.656-4.828a22.255,22.255,0,0,0-4.438-3.247,46.388,46.388,0,0,1-5.206-3.42,21.755,21.755,0,0,1-2.338-2.165c-1.082-1.137-1.873-2.435-2.868-3.6-.184-.216-.422,0-.411.238.119,2.067,1.905,4.1,3.3,5.488a29.431,29.431,0,0,0,5.336,4.037c.855.52,1.7,1.082,2.533,1.613a.8.8,0,0,0-.346.52c-.314,1.6-.92,3.139-1.331,4.709a14.764,14.764,0,0,0-.487,4.568,9.6,9.6,0,0,0,2.717,6.679,16.929,16.929,0,0,0,13.812,4.135,10.446,10.446,0,0,0,3.68-1.331A5.336,5.336,0,0,0,311,214.632C311.1,214.264,310.559,213.637,310.17,214.026Z" transform="translate(-156.246 -104.709)"/>
            <path id="Path_1451" data-name="Path 1451" d="M294.618,229.748a7.349,7.349,0,0,0-.639-2.165,20.74,20.74,0,0,0-2.457-4.135,11.452,11.452,0,0,0-3.821-3.074,13.831,13.831,0,0,0-2.306-.963l-.465-.152a7.23,7.23,0,0,0,.487-2.165,21.151,21.151,0,0,0-.866-6.927c-.617-2.219-1.613-4.514-3.832-5.531-.888-.411-.931.866-.314,1.256.953.6,1.44,2.425,1.764,3.42a21,21,0,0,1,.866,3.972c.238,1.97.422,4.1-.476,5.878a.335.335,0,0,0-.152.281,5.793,5.793,0,0,1-.368.584c-1.775,2.273-4.73,3.247-7.231,4.5s-5.261,2.706-5.639,5.672c-.065.465.66,1.137,1.082.649a17.319,17.319,0,0,1,6.256-4.828,25.427,25.427,0,0,0,6.343-3.626,8.41,8.41,0,0,0,1.3-1.5h.173l.92.281a13.531,13.531,0,0,1,1.786.747,9.244,9.244,0,0,1,2.9,2.306,22.464,22.464,0,0,1,1.678,2.457,16.9,16.9,0,0,1,1,1.851,14.772,14.772,0,0,1,.736,1.743,4.331,4.331,0,0,0,.39,1.018c.087.119.26.325.433.238C294.78,231.242,294.672,230.322,294.618,229.748Z" transform="translate(-157.06 -103.296)"/>
            <path id="Path_1452" data-name="Path 1452" d="M277.033,207.756c0-.346-.52-.747-.628-.195a9.817,9.817,0,0,1-2.468,5.152,25.976,25.976,0,0,1-4.33,3.453,24.064,24.064,0,0,0-4.221,3.464,8.324,8.324,0,0,0-1.58,2.338,4.428,4.428,0,0,0-.195,2.847c0,.195.357.736.617.444a24.054,24.054,0,0,0,1.948-3.031,11.041,11.041,0,0,1,1.732-2.089,37.648,37.648,0,0,1,4.048-3.085,14.678,14.678,0,0,0,3.962-3.745,8.183,8.183,0,0,0,1.115-5.553Z" transform="translate(-157.531 -103.071)"/>
            <path id="Path_1453" data-name="Path 1453" d="M227.531,166.878a14.948,14.948,0,0,0-4.73-1.364,39.887,39.887,0,0,0-14.234.758,49.508,49.508,0,0,0-10.965,3.507,26.865,26.865,0,0,0-5.163,3.1c-1.082.833-3.247,2.381-2.63,3.951.1.249.39.6.693.509,1.57-.455,2.782-2.165,4.092-3.1a24.821,24.821,0,0,1,4.416-2.533,48.07,48.07,0,0,1,9.59-3.15,45.69,45.69,0,0,1,12.35-1.321,28.144,28.144,0,0,1,4.265.5,9.569,9.569,0,0,1,3.788,1.8.292.292,0,0,0,.433-.076C229.934,168.231,228.408,167.344,227.531,166.878Z" transform="translate(-163.611 -106.54)"/>
            <path id="Path_1454" data-name="Path 1454" d="M204.967,157.652a5.575,5.575,0,0,0-1.656,1.321c-.606.585-1.223,1.082-1.862,1.667a20.448,20.448,0,0,1-4.265,2.706,18.141,18.141,0,0,1-4.557,1.429,21.931,21.931,0,0,1-2.23.238,7.209,7.209,0,0,0-2.165.173c-.541.195-.238.931.119,1.147,1.407.855,3.659.52,5.2.26a18,18,0,0,0,4.979-1.667,20.934,20.934,0,0,0,4.265-2.847,16.605,16.605,0,0,0,1.84-1.862,2.966,2.966,0,0,0,.974-1.938C205.66,157.955,205.324,157.5,204.967,157.652Z" transform="translate(-163.756 -107.165)"/>
          </g>
          <g id="Group_327" data-name="Group 327" transform="translate(83.513 4.654)" opacity="0.05">
            <path id="Path_1455" data-name="Path 1455" d="M280.436,100.175c-.184-.206-.4,0-.433.195-.206,1.082,0,2.165-.141,3.247a12.511,12.511,0,0,1-1.277,4.167c-1.277,2.522-3.442,5.087-6.235,5.953-6.873,2.165-12.762-2.349-17.524-6.733a26.21,26.21,0,0,0-.963-2.576,23.153,23.153,0,0,0-3.908-5.942,37.819,37.819,0,0,0-4.8-4.7,14.493,14.493,0,0,0-2.923-1.927,4.611,4.611,0,0,0-2.8-.66c-.552.119-.281.953.152,1.082a11.149,11.149,0,0,1,4.6,2.923,47.3,47.3,0,0,1,4.048,4.33,20.491,20.491,0,0,1,3.507,5.5,19.484,19.484,0,0,1,1.082,3.734c.108.574.206,1.147.325,1.71a10.11,10.11,0,0,0,.823,2.046c.119.271.53.574.725.206a5.412,5.412,0,0,0,.585-2.609,18.531,18.531,0,0,0,5.91,4.492,16.723,16.723,0,0,0,11.528,1.266,12.264,12.264,0,0,0,7.155-5.748C281.594,107.221,282.871,103,280.436,100.175Z" transform="translate(-239.124 -91.184)"/>
            <path id="Path_1456" data-name="Path 1456" d="M292.987,121.209c-2.425-1.829-5.531-3.518-8.659-3.431-.617,0-.184,1.147.3,1.18,2.165.184,4.579,1.613,6.332,2.89,1.461,1.082,3.734,2.9,3.68,4.936-.054,2.847-4.936,3.312-6.928,3.247a19.624,19.624,0,0,1-10.608-3.983,21.508,21.508,0,0,1-4.33-3.875c-1.45-1.754-2.067-3.864-3.1-5.867-.162-.3-.769-.585-.823,0a11.214,11.214,0,0,0,2.165,6.884,19.192,19.192,0,0,0,4.557,4.654,21.562,21.562,0,0,0,12.21,4.481c3.02.065,8.454-1,9.157-4.633C297.425,125,294.882,122.649,292.987,121.209Z" transform="translate(-236.673 -89.142)"/>
            <path id="Path_1457" data-name="Path 1457" d="M321.865,149.282c-1.288-.368-2.868.13-4.167.325-1.548.238-3.1.5-4.654.66a28.3,28.3,0,0,1-9.211-.4,22.513,22.513,0,0,1-7.047-2.879,29.919,29.919,0,0,1-6.495-6.062c-.336-.379-.812-.216-.79.292A7.847,7.847,0,0,0,291.2,145a13.811,13.811,0,0,0,2.912,2.977,23.034,23.034,0,0,0,7.913,3.734,28.349,28.349,0,0,0,9.915.823,52.614,52.614,0,0,0,5.52-.823c.942-.173,1.862-.4,2.793-.606.628-.141,1.667-.184,2.046-.79a.714.714,0,0,0-.433-1.028Z" transform="translate(-234.972 -87.101)"/>
            <path id="Path_1458" data-name="Path 1458" d="M312.266,134.1c-.66,0-.13,1.082.249,1.147,1.721.476,2.241,4.146,1.483,5.6-1.137,2.165-4.654,2.251-6.743,2.273a19.31,19.31,0,0,1-9.644-2.5c-2.782-1.591-5.012-3.9-7.685-5.629-.455-.281-.563.4-.336.682,2.511,2.977,5.12,5.986,8.659,7.685a20.8,20.8,0,0,0,11.907,1.7c2.674-.4,5.921-1.58,6.191-4.709C316.639,137.867,315.221,133.992,312.266,134.1Z" transform="translate(-234.974 -87.647)"/>
            <path id="Path_1459" data-name="Path 1459" d="M323.857,158.19a2.807,2.807,0,0,0-.411-.184,6.124,6.124,0,0,0-.639-.162,8.033,8.033,0,0,0-1.234-.162,12.6,12.6,0,0,0-2.706.173,23.814,23.814,0,0,0-5.823,1.754,10.825,10.825,0,0,0-4.113,2.977,10.392,10.392,0,0,0-1.818,5.834,7.317,7.317,0,0,0,.833,4.07,6.5,6.5,0,0,0,5.412,3.247,1,1,0,0,0,.53-.141.671.671,0,0,0,.108-.79,2.079,2.079,0,0,0-.585-.606,12.091,12.091,0,0,1-2.652-2.544,6.787,6.787,0,0,1,2.165-9.439,21.334,21.334,0,0,1,5.412-2.1,10.088,10.088,0,0,1,6.213,0,.4.4,0,0,0,.433-.433C325.08,159.3,324.149,158.33,323.857,158.19Z" transform="translate(-233.522 -85.704)"/>
            <path id="Path_1460" data-name="Path 1460" d="M328.893,181.706c-2.165-4.654-7.4-7.512-12.307-8.335-2.674-.455-7.339-.649-9.082,1.883a.79.79,0,0,0-.184.476.617.617,0,0,0,.487.53,1.688,1.688,0,0,0,.769,0c2.165-.4,4.081-1.082,6.343-.909a15.154,15.154,0,0,1,10.824,5.953c1.818,2.7,2.295,7.155.238,9.883-1.764,2.327-4.979,2.338-7.577,1.634a7.988,7.988,0,0,1-3.951-2.078c-.92-1.082-.281-2.262.509-3.247.411-.5-.336-1.6-.931-1.212-1.775,1.147-3.247,3.031-2.035,5.152a7.685,7.685,0,0,0,4.037,2.955c3.529,1.364,7.848,1.689,10.976-.844C330.354,190.863,330.592,185.364,328.893,181.706Z" transform="translate(-233.503 -84.433)"/>
            <path id="Path_1461" data-name="Path 1461" d="M323.374,202.457a12.512,12.512,0,0,0-3.345-4.33,6.408,6.408,0,0,0-4.936-1.634c-.6.108-.227,1.082.249,1.082,3.063.227,5.109,3.182,6.148,5.78a13.108,13.108,0,0,1,.931,4.059,11.3,11.3,0,0,1-.065,2,5.464,5.464,0,0,1-.119.714,4.4,4.4,0,0,0-.119,1.4c.087.379.39.79.823.628.725-.292,1.245-1.418,1.472-2.1a7.457,7.457,0,0,0,.292-2.63A12.7,12.7,0,0,0,323.374,202.457Z" transform="translate(-232.887 -82.507)"/>
          </g>
          <g id="Group_328" data-name="Group 328" transform="translate(10.281 16.732)" opacity="0.2">
            <path id="Path_1462" data-name="Path 1462" d="M227.419,125.3c-.758-.13-1.5.346-1.927,1.721-.974,3.1,0,8.226.314,11.387a85.964,85.964,0,0,0,2.273,13.465c.909,3.583,2.1,7.209,4.481,10.034a21.389,21.389,0,0,0,8.594,5.694c8.778,3.518,18.661,4.048,27.061,8.454,1.082.541,2.349,1.082,3.247.379a1.916,1.916,0,0,0,.227-2.4,4.7,4.7,0,0,0-2.035-1.613c-3.345-1.634-7.068-2.251-10.662-3.247a43.373,43.373,0,0,1-16.68-8.259,30.47,30.47,0,0,1-10.132-15.37c-1.007-3.843-1.082-7.837-1.656-11.755-.292-2.067-.152-4.395-.985-6.343a3.345,3.345,0,0,0-2.122-2.143Z" transform="translate(-167.05 -100.451)" fill="#fff"/>
            <path id="Path_1463" data-name="Path 1463" d="M210.943,140.622a7.794,7.794,0,0,1-6.83,6.765,2.684,2.684,0,0,0-1.851.53c-.833.909.271,2.284,1.288,2.977,3.377,2.306,7.436,4.46,11.376,3.388,4.124-1.082,6.646-5.574,6.83-9.85.162-3.583-2.165-22.406-9.482-16.68C208.844,130.447,211.366,137.017,210.943,140.622Z" transform="translate(-168.954 -100.336)" fill="#fff"/>
            <path id="Path_1464" data-name="Path 1464" d="M204.327,140.351c2.76-9.612-15.154-20.36-15.793-7.913a8.768,8.768,0,0,0,.779,4.784c2.728,4.838,7.35-2.684,11.16,2.013a11,11,0,0,0,1.429,1.786,1.559,1.559,0,0,0,2.078.065A1.851,1.851,0,0,0,204.327,140.351Z" transform="translate(-170.067 -100.325)" fill="#fff"/>
            <path id="Path_1465" data-name="Path 1465" d="M242.514,178.8a8.433,8.433,0,0,0,2.165,1.959c7.5,5.412,13.866,13.314,14.634,22.525.162,1.981.346,4.438,2.165,5.2a3.962,3.962,0,0,0,3.3-.476c3.507-1.927,5.488-5.986,5.726-9.98a23.965,23.965,0,0,0-2.739-11.56c-2.306-4.968-6.278-9.3-11.69-10.759C253.8,175.123,238.855,173.315,242.514,178.8Z" transform="translate(-165.659 -96.357)" fill="#fff"/>
            <path id="Path_1466" data-name="Path 1466" d="M199.575,176.987c2.251.325,4.481,1.84,6.841,2.089,2.912.314,6.321,0,8.768-1.721a26.717,26.717,0,0,1,2.468-1.981,4.86,4.86,0,0,1,5.672,1.169,8.053,8.053,0,0,1,1.894,5.791,8.346,8.346,0,0,1-3.247,6.7c-2.814,1.927-6.614,1.212-9.872.238-5.174-1.548-10.3-3.626-14.385-7.155a5.639,5.639,0,0,1-1.667-2.046,2.3,2.3,0,0,1,.379-2.49,3.063,3.063,0,0,1,1.927-.649A6.267,6.267,0,0,1,199.575,176.987Z" transform="translate(-169.46 -96.359)" fill="#fff"/>
            <path id="Path_1467" data-name="Path 1467" d="M242.968,152.525c4.481,4.979,10.64,8.151,16.9,10.543,5.953,2.284,15.306,5.607,21.649,2.933,1.948-.823,3.583-2.8,3.3-4.893s-2.078-3.4-3.853-4.33c-6.289-3.388-13.541-4.741-19.917-7.945-1.223-.617-2.89-1.169-3.821-.162s-.336,2.511.617,3.366a22.729,22.729,0,0,0,5.077,3.431c2.392,1.082,7.144,1.472,9.017,3.247s.26,3.052-1.992,2.717c-6.311-.953-12.621-2.706-17.947-6.224a24.593,24.593,0,0,1-9.742-11.907,34.4,34.4,0,0,1-1.57-5.52c-.195-1.082.216-4.124-.769-4.893-3.107-2.446-2.782,7.144-2.576,8.356a22.817,22.817,0,0,0,5.629,11.279Z" transform="translate(-166.049 -99.857)" fill="#fff"/>
            <path id="Path_1468" data-name="Path 1468" d="M235.706,106.973a9.049,9.049,0,0,0-7.945-3.561,15.219,15.219,0,0,0-8.291,3.41,19.581,19.581,0,0,0-15.425-4.254c-4.07.585-8.291,2.414-10.824,5.856-.465.649-.823,1.656-.195,2.165a1.656,1.656,0,0,0,.942.271c4.232.195,8.475-1.732,12.881-1.645a25.6,25.6,0,0,1,13.1,3.507c2.533,1.569,4.752,3.713,7.577,4.752a6.971,6.971,0,0,0,8.183-10.5Z" transform="translate(-169.719 -102.342)" fill="#fff"/>
            <path id="Path_1469" data-name="Path 1469" d="M175.941,117.548a20.166,20.166,0,0,0-4.47,12.264c-.076,4.849,1.981,8.854,7.382,8.887a3.247,3.247,0,0,0,1.515-.281c1.472-.779,1.364-2.868,1.212-4.525a23.716,23.716,0,0,1,3.247-14.191c.714-1.2,1.58-2.555,1.18-3.9a3.117,3.117,0,0,0-2.6-1.97C180.357,113.381,177.781,115.275,175.941,117.548Z" transform="translate(-171.468 -101.4)" fill="#fff"/>
            <path id="Path_1470" data-name="Path 1470" d="M251.449,214.954a31.943,31.943,0,0,0-.7-11.268,23.218,23.218,0,0,0-8.941-13.563c-2.306-1.645-6.884-4.33-9.655-2.381s-1.992,5.715-.325,7.988,4.189,3.843,6.04,6.007a18.044,18.044,0,0,1,3.9,9.883c.336,3.182-.747,5.9-.639,8.908a3.323,3.323,0,0,0,1.321,2.7,3.366,3.366,0,0,0,1.905.487,6.776,6.776,0,0,0,5.412-3.6,14.276,14.276,0,0,0,1.689-5.152Z" transform="translate(-166.617 -95.359)" fill="#fff"/>
            <path id="Path_1471" data-name="Path 1471" d="M203.3,198.6l15.251,5.066a38.966,38.966,0,0,1,8.367,3.518,13.065,13.065,0,0,1,5.758,6.8c.455,1.4.79,3.139,2.165,3.626a2.587,2.587,0,0,0,3.052-1.873,5.845,5.845,0,0,0-.509-3.875c-2.652-6.365-8.778-10.651-15.154-13.314s-13.184-4.081-19.549-6.744a53.894,53.894,0,0,1-17.07-11.4c-2.284-2.262-4.784-2.674-4.546,1.234C181.742,192.014,195.24,195.922,203.3,198.6Z" transform="translate(-170.678 -96.049)" fill="#fff"/>
            <path id="Path_1472" data-name="Path 1472" d="M284.475,182.133c-1.634-2.1-3.788-.509-3.875,2.425s2.111,5.65,4.568,7.393,5.315,2.933,7.577,4.9a18.4,18.4,0,0,1,3.1,3.247c1.082,1.6,1.7,6.733,4.654,3.853,2.111-2.046,1.007-6.8-.411-8.811-1.754-2.479-4.481-4.037-7.122-5.531-2.8-1.591-6.495-3.648-8-6.592a7.01,7.01,0,0,0-.487-.888Z" transform="translate(-162.473 -95.844)" fill="#fff"/>
            <path id="Path_1473" data-name="Path 1473" d="M293.662,217.376a12.394,12.394,0,0,1-7.177-6.722c-.195-.487-.563-1.082-1.082-.963s-.465.769-.39,1.234c.281,1.786.314,3.745,1.223,5.326a17.123,17.123,0,0,0,3.864,4.33,10.706,10.706,0,0,1,2.977,3.594c.649,1.472.552,3.15,1.5,4.525a4.536,4.536,0,0,0,2.013,1.58,5.953,5.953,0,0,0,7.577-3.312C306.792,220.018,298.674,219.26,293.662,217.376Z" transform="translate(-162.113 -93.495)" fill="#fff"/>
            <path id="Path_1474" data-name="Path 1474" d="M177.474,144.551a8.486,8.486,0,0,0-3.247.509,3.507,3.507,0,0,0-2.165,2.327,3.843,3.843,0,0,0,2.165,3.875,19.852,19.852,0,0,0,4.557,1.4,17.319,17.319,0,0,1,6.754,3.55c.855.725,1.927,1.6,2.966,1.158a2.457,2.457,0,0,0,1.147-2.262,8.562,8.562,0,0,0-1.082-4.719C186.263,146.272,181.933,144.529,177.474,144.551Z" transform="translate(-171.421 -98.863)" fill="#fff"/>
          </g>
          <path id="Path_1475" data-name="Path 1475" d="M251.608,98.766c2.4,3.247,4.427,6.8,7.458,9.439s7.49,4.167,11.127,2.446a8.3,8.3,0,0,0,4.427-6.072c.574-3.442-1.082-8.281-4-10.251a11.344,11.344,0,0,0-12.838.433,1.905,1.905,0,0,1-.866.476,1.829,1.829,0,0,1-1.082-.379c-1.927-1.191-6.256-5.185-8.659-4.33C243.814,91.633,250.709,97.543,251.608,98.766Z" transform="translate(-155.023 -86.594)" fill="#407bff"/>
          <path id="Path_1476" data-name="Path 1476" d="M278.851,113.345a1.158,1.158,0,0,0-.1.92,1.082,1.082,0,0,0,.79.455c2.078.5,4.2.769,6.267,1.331a23.034,23.034,0,0,1,10.348,6.1,11.16,11.16,0,0,1,3.561,6.863c.152,2.63-1.526,5.477-4.113,5.932-.411,1.321.844,2.533,2,3.247a34.755,34.755,0,0,0,5.878,3.042c2.273.909,5.336,1.364,6.754-.628,1.082-1.483.52-3.648-.714-4.979a12,12,0,0,0-4.687-2.663c3.15-3.4,3.042-9.082.3-12.816s-7.577-5.542-12.242-5.261a4.46,4.46,0,0,1-2.7-.336c-1.7-1.082-.888-3.691-.985-5.347-.184-2.966-2.414-7.458-5.953-5.131C280.475,105.952,280.031,110.541,278.851,113.345Z" transform="translate(-152.349 -85.52)" fill="#407bff"/>
          <path id="Path_1477" data-name="Path 1477" d="M277.187,119.353a2.425,2.425,0,0,0-2.284.844c-.52.92.249,2.035,1.082,2.739a16.377,16.377,0,0,0,3.6,2.468,16.669,16.669,0,0,0,8.475,1.754,2.684,2.684,0,0,0,1.082-.238c2.641-1.44-.476-5.813-2.262-6.495C284.136,119.309,280.12,119.407,277.187,119.353Z" transform="translate(-152.676 -84.211)" fill="#407bff"/>
          <path id="Path_1478" data-name="Path 1478" d="M299.4,152.815a1.992,1.992,0,0,0-1.624.271,1.4,1.4,0,0,0-.119,1.689c.682,1.191,1.786,2.165,2.511,3.4a9.741,9.741,0,0,1,1.407,4.958c0,1.4-.281,2.89.411,4.1.379.649,1.007,1.137,1.342,1.8.206.4.3.855.509,1.256a1.277,1.277,0,0,0,1.028.769c.714,0,1.082-.823,1.277-1.515.66-2.511.606-5.412,1.732-7.75,1.266-2.652,3.637-3.41,6.127-4.33,2.879-1.137,5.986-1.321,8.973-2.046a3.615,3.615,0,0,0,1.158-.465,1.234,1.234,0,0,0,.552-1.082c-.173-1.44-3.063-1.082-3.962-.974A73.323,73.323,0,0,1,299.4,152.815Z" transform="translate(-150.805 -81.455)" fill="#407bff"/>
          <path id="Path_1479" data-name="Path 1479" d="M312.79,170.132c0-4.092,5.639-6.96,9.168-6.982a13.941,13.941,0,0,1,7.577,2.479c2.836,1.862,3.886,6.495,3.15,9.655a4.947,4.947,0,0,1-1.375,2.587,2.533,2.533,0,0,1-2.749.5,4.427,4.427,0,0,1-1.375-1.353,14.667,14.667,0,0,0-10.824-5.412C314.966,171.528,313.212,171.431,312.79,170.132Z" transform="translate(-149.539 -80.598)" fill="#407bff"/>
          <path id="Path_1480" data-name="Path 1480" d="M319.734,178.577a13.444,13.444,0,0,0-6.592-.931,4.211,4.211,0,0,0-2.381.877,1.8,1.8,0,0,0-.411,2.316,2.684,2.684,0,0,0,.985.736,42.054,42.054,0,0,1,5.228,3.356,4.178,4.178,0,0,1,1.483,1.624,13.532,13.532,0,0,0,.606,2.111,3.356,3.356,0,0,0,2.533,1.158,3.626,3.626,0,0,0,1.927-.087,2.933,2.933,0,0,0,1.4-2.111,7.815,7.815,0,0,0-7.674-9.569" transform="translate(-149.761 -79.41)" fill="#407bff"/>
          <path id="Path_1481" data-name="Path 1481" d="M274.7,130.585a1.2,1.2,0,0,0-1.082.152.8.8,0,0,0,0,1.007,2.425,2.425,0,0,0,.909.617,37.883,37.883,0,0,1,7.209,3.886A10.424,10.424,0,0,1,286.007,143c.076.682.119,1.483.693,1.851a1.375,1.375,0,0,0,1.786-.53,3.973,3.973,0,0,0,.53-1.97c.281-3.15,1.082-8-2.63-9.45a25.177,25.177,0,0,0-4.243-.714C279.675,131.678,277.207,131.04,274.7,130.585Z" transform="translate(-152.783 -83.288)" fill="#407bff"/>
          <path id="Path_1482" data-name="Path 1482" d="M219.719,94.017c-.877.563-1.851,1.321-1.818,2.36a2.165,2.165,0,0,0,1.808,1.8,7.09,7.09,0,0,0,2.728-.238c6.072-1.277,13.119-.714,17.405,3.778a14.787,14.787,0,0,0,2.479,2.457c2.684,1.732,6.224,1.429,9.179,2.165a2.912,2.912,0,0,0-.433-1.754C245.556,94.017,230.348,87.231,219.719,94.017Z" transform="translate(-157.36 -86.521)" fill="#407bff"/>
          <path id="Path_1483" data-name="Path 1483" d="M322.122,195.794c-.66.119-1.429.411-1.58,1.082s.346,1.169.779,1.613l2.013,2.024a8.529,8.529,0,0,1,1.288,1.5c.877,1.429.866,3.247,1.212,4.849.108.5.368,1.082.877,1.137a1.082,1.082,0,0,0,.758-.357c1.6-1.429,1.764-3.832,1.754-5.986C329.266,196.985,326.712,194.95,322.122,195.794Z" transform="translate(-148.902 -77.923)" fill="#407bff"/>
          <path id="Path_1484" data-name="Path 1484" d="M229.881,160.11a2.241,2.241,0,1,1-2.241-2.23,2.241,2.241,0,0,1,2.241,2.23Z" transform="translate(-156.742 -81.032)" fill="#fafafa"/>
          <path id="Path_1485" data-name="Path 1485" d="M215.571,120.59a2.241,2.241,0,1,1-2.23-2.23,2.241,2.241,0,0,1,2.23,2.23Z" transform="translate(-157.922 -84.29)" fill="#fafafa"/>
          <path id="Path_1486" data-name="Path 1486" d="M198.621,142.651a2.23,2.23,0,1,1-.649-1.584,2.241,2.241,0,0,1,.649,1.584Z" transform="translate(-159.319 -82.472)" fill="#fafafa"/>
          <path id="Path_1487" data-name="Path 1487" d="M178.581,153.821a2.23,2.23,0,1,1-.649-1.584,2.241,2.241,0,0,1,.649,1.584Z" transform="translate(-160.971 -81.552)" fill="#fafafa"/>
          <path id="Path_1488" data-name="Path 1488" d="M221.75,173.26a2.23,2.23,0,1,1-2.23-2.23A2.23,2.23,0,0,1,221.75,173.26Z" transform="translate(-157.411 -79.949)" fill="#fafafa"/>
          <path id="Path_1489" data-name="Path 1489" d="M190.491,177.76a2.241,2.241,0,1,1-2.23-2.23,2.241,2.241,0,0,1,2.23,2.23Z" transform="translate(-159.989 -79.578)" fill="#fafafa"/>
          <path id="Path_1490" data-name="Path 1490" d="M269.15,179.171a2.23,2.23,0,1,1-.649-1.584,2.23,2.23,0,0,1,.649,1.584Z" transform="translate(-153.504 -79.462)" fill="#fafafa"/>
          <path id="Path_1491" data-name="Path 1491" d="M254.251,219.571a2.23,2.23,0,1,1-.649-1.584,2.24,2.24,0,0,1,.649,1.584Z" transform="translate(-154.733 -76.132)" fill="#fafafa"/>
          <path id="Path_1492" data-name="Path 1492" d="M272.15,158.17a2.23,2.23,0,1,1-2.23-2.23,2.23,2.23,0,0,1,2.23,2.23Z" transform="translate(-153.256 -81.192)" fill="#fafafa"/>
          <path id="Path_1493" data-name="Path 1493" d="M272.011,116.47a2.241,2.241,0,1,1-2.23-2.23,2.241,2.241,0,0,1,2.23,2.23Z" transform="translate(-153.269 -84.63)" fill="#f0f0f0"/>
          <path id="Path_1494" data-name="Path 1494" d="M309.721,144.081a2.23,2.23,0,1,1-.649-1.584A2.241,2.241,0,0,1,309.721,144.081Z" transform="translate(-150.161 -82.355)" fill="#f0f0f0"/>
          <path id="Path_1495" data-name="Path 1495" d="M315.341,174.5a2.23,2.23,0,1,1-.649-1.584A2.241,2.241,0,0,1,315.341,174.5Z" transform="translate(-149.698 -79.847)" fill="#f0f0f0"/>
          <path id="Path_1496" data-name="Path 1496" d="M247.171,94.451a2.241,2.241,0,1,1-2.241-2.241A2.241,2.241,0,0,1,247.171,94.451Z" transform="translate(-155.317 -86.445)" fill="#f0f0f0"/>
          <path id="Path_1497" data-name="Path 1497" d="M248.64,125.67a2.23,2.23,0,1,1-2.23-2.23,2.23,2.23,0,0,1,2.23,2.23Z" transform="translate(-155.194 -83.871)" fill="#fafafa"/>
          <circle id="Ellipse_43" data-name="Ellipse 43" cx="2.23" cy="2.23" r="2.23" transform="translate(91.93 109.851)" fill="#fafafa"/>
          <path id="Path_1498" data-name="Path 1498" d="M293.51,199.46a2.23,2.23,0,1,1-2.23-2.23A2.23,2.23,0,0,1,293.51,199.46Z" transform="translate(-151.496 -77.789)" fill="#fafafa"/>
          <path id="Path_1499" data-name="Path 1499" d="M195.611,197.262a2.241,2.241,0,1,1-.649-1.6,2.241,2.241,0,0,1,.649,1.6Z" transform="translate(-159.567 -77.973)" fill="#fafafa"/>
          <path id="Path_1500" data-name="Path 1500" d="M229.881,212.17a2.241,2.241,0,1,1-2.241-2.23,2.241,2.241,0,0,1,2.241,2.23Z" transform="translate(-156.742 -76.741)" fill="#fafafa"/>
          <path id="Path_1501" data-name="Path 1501" d="M285.671,219.021a2.241,2.241,0,1,1-2.241-2.241,2.241,2.241,0,0,1,2.241,2.241Z" transform="translate(-152.144 -76.178)" fill="#fafafa"/>
        </g>
      </g>
      <g id="freepik--character-2--inject-6" transform="translate(339.972 303.979)">
        <g id="freepik--character-girl--inject-6" transform="translate(0 0)">
          <path id="Path_1502" data-name="Path 1502" d="M345.98,324.18l-12.567.866-.433.574,10.77,21.2,11.961-1.992Z" transform="translate(-313.713 -282.323)" fill="#407bff"/>
          <path id="Path_1503" data-name="Path 1503" d="M345.98,324.18l-12.567.866-.433.574,10.77,21.2,11.961-1.992Z" transform="translate(-313.713 -282.323)" opacity="0.3"/>
          <path id="Path_1504" data-name="Path 1504" d="M346.369,323.65l-12.989,1.44,10.77,21.2,11.961-1.981Z" transform="translate(-313.68 -282.366)" fill="#407bff"/>
          <path id="Path_1505" data-name="Path 1505" d="M346.14,325.51l-10.9,1.212,8.984,17.351,10.034-1.667Z" transform="translate(-313.527 -282.213)" fill="#f0f0f0"/>
          <path id="Path_1506" data-name="Path 1506" d="M343.792,326.42l-.444-.866c-.249-.487-1.266-.79-2.262-.682l-1.927.195c-1.007.108-1.624.574-1.375,1.082l.444.866Z" transform="translate(-313.322 -282.267)" opacity="0.15"/>
          <path id="Path_1507" data-name="Path 1507" d="M342.879,323.6a1.082,1.082,0,0,0-1.017-.444l-.747.108a3.366,3.366,0,0,0-2.738-1.829c-1.764.065-.8,2.165-.8,2.165l-.79.119c-.433.065-.682.357-.552.649l.238.53,6.7-.747Z" transform="translate(-313.448 -282.548)" fill="#37474f"/>
          <path id="Path_1508" data-name="Path 1508" d="M342.2,324.023c-.628,0-.866.1-.487.833s.8,1.483.8,1.483l-2.955.336s-.541-1.082-.758-1.483a1.027,1.027,0,0,0-1-.671l-.281-.357,4.7-.444Z" transform="translate(-313.339 -282.36)" fill="#263238"/>
          <path id="Path_1509" data-name="Path 1509" d="M343.939,326.53l-.444-.877a2.522,2.522,0,0,0-2.241-.649l-1.916.206c-1.007.1-1.624.574-1.375,1.082l.444.877Z" transform="translate(-313.307 -282.259)" fill="#37474f"/>
          <path id="Path_1510" data-name="Path 1510" d="M349.761,333.348s.336-1.927-.238-2.587-2.955-.574-4.124-1.082-1.082.888-.465,1.342C346.276,331.995,348.939,332.449,349.761,333.348Z" transform="translate(-312.765 -281.878)" fill="#f28f8f"/>
          <g id="freepik--Character--inject-6">
            <path id="Path_1511" data-name="Path 1511" d="M368.122,309.69c1.927.1,3.7,1.526,5.661,6.386s5.986,15.511,5.336,17.319c-.444,1.256-14.851,5.022-14.851,5.022l-2.078-4.405,9.558-4.33-5.412-12.5Z" transform="translate(-311.306 -283.517)" fill="#e0e0e0"/>
            <path id="Path_1512" data-name="Path 1512" d="M357.407,406.77a25.694,25.694,0,0,1,.682,2.49,6.754,6.754,0,0,1,.13,3.161c-.325.693-1.58,1.137-3.54,1.082a11.571,11.571,0,0,0-4.59,1.6,12.124,12.124,0,0,1-5.769.92c-1.743-.206-3.54-1.212-3.821-1.938s-.52-1.71,4.189-3.247c0,0,5.694-1.851,7.674-4.037Z" transform="translate(-313.104 -275.515)" fill="#407bff"/>
            <path id="Path_1513" data-name="Path 1513" d="M357.407,406.77a25.694,25.694,0,0,1,.682,2.49,6.754,6.754,0,0,1,.13,3.161c-.325.693-1.58,1.137-3.54,1.082a11.571,11.571,0,0,0-4.59,1.6,12.124,12.124,0,0,1-5.769.92c-1.743-.206-3.54-1.212-3.821-1.938s-.52-1.71,4.189-3.247c0,0,5.694-1.851,7.674-4.037Z" transform="translate(-313.104 -275.515)" opacity="0.4"/>
            <path id="Path_1514" data-name="Path 1514" d="M357.162,406.9l-.9-.108-4.146.087c-1.981,2.165-7.631,4.027-7.674,4.037l-.758.26c-.812.649-.119,1.775,1.829,1.948s7.988-1.862,9.331-2.511a3.994,3.994,0,0,0,2.316-3.713Z" transform="translate(-312.858 -275.513)" fill="#ffa8a7"/>
            <path id="Path_1515" data-name="Path 1515" d="M356.494,405.25v1.775c0,.649-.758,1.613-2.739,1.548-1.385-.054-2.36-.433-2.306-1.57v-1.656Z" transform="translate(-312.191 -275.64)" fill="#ffa8a7"/>
            <path id="Path_1516" data-name="Path 1516" d="M369.168,400.411c.357.141.433.833.444,2.165,0,1.028.195,2.836-1.028,3.161a3.767,3.767,0,0,1-3.724-.9c-.942-1.234-1.559-2.327-2.9-3.843-1.158-1.31-2.425-2.544-2.858-4.33-.39-1.634,0-2.338,1.082-2.782s2.165-.076,3.691,1.223a6.883,6.883,0,0,0,1.375.725C366.31,396.189,368.811,400.259,369.168,400.411Z" transform="translate(-311.572 -276.592)" fill="#407bff"/>
            <path id="Path_1517" data-name="Path 1517" d="M369.168,400.411c.357.141.433.833.444,2.165,0,1.028.195,2.836-1.028,3.161a3.767,3.767,0,0,1-3.724-.9c-.942-1.234-1.559-2.327-2.9-3.843-1.158-1.31-2.425-2.544-2.858-4.33-.39-1.634,0-2.338,1.082-2.782s2.165-.076,3.691,1.223a6.883,6.883,0,0,0,1.375.725C366.31,396.189,368.811,400.259,369.168,400.411Z" transform="translate(-311.572 -276.592)" opacity="0.4"/>
            <path id="Path_1518" data-name="Path 1518" d="M368.769,398.862v1.678s-1.082,2.165-4.232,0c-.065-.173-.346-3.41-.346-3.41Z" transform="translate(-311.141 -276.31)" fill="#ffa8a7"/>
            <path id="Path_1519" data-name="Path 1519" d="M365.134,395.735a6.883,6.883,0,0,1-1.375-.725h0c-1.256-.4-3.9.065-2.706,1.883a14.3,14.3,0,0,0,3.724,3.832c1.407.693,1.905-.173,1.905-.173l-.5-3.918A3.161,3.161,0,0,0,365.134,395.735Z" transform="translate(-311.424 -276.495)" fill="#ffa8a7"/>
            <path id="Path_1520" data-name="Path 1520" d="M372.388,380.863a39.606,39.606,0,0,0-1.808-8.659s1.082-7.382,1.883-14.472c1.948-16.637.649-16.907-1.7-22.731,0,0-21.335-2.749-22.222,6.127-1.082,11.041-.606,32.473-.422,36.38s.509,5.694,1.667,13.9c.888,6.246,1.721,19.906,1.721,19.906A5.412,5.412,0,0,0,357,411.03s2.674-16.8,2.609-21.313a38.666,38.666,0,0,0-1.44-9.893s1.808-18,2.273-20.869c0,0,.52,5.748.7,9.666s1.245,7.685,2.165,14.97c.812,6.332,2.165,19.538,2.165,19.538,2.8,1.613,4.752.877,4.752.877S373.005,386.351,372.388,380.863Z" transform="translate(-312.487 -281.464)" fill="#407bff"/>
            <path id="Path_1521" data-name="Path 1521" d="M359.48,357.879l1.169-7.415a16.452,16.452,0,0,0,6.581-2.295,8.811,8.811,0,0,1-5.282,3.1l-1.191,8.659-.476,9.006Z" transform="translate(-311.529 -280.345)" opacity="0.1"/>
            <path id="Path_1522" data-name="Path 1522" d="M356.48,305.944l.79,8.291,7.285-.465-.585-9.19Z" transform="translate(-311.776 -283.938)" fill="#ffa8a7"/>
            <path id="Path_1523" data-name="Path 1523" d="M371.812,312.678c-.736-2.165-2.251-3.475-5.585-3.518H365c-.238,1.223-3.821,2.165-7.371.963-.5.119-1.862.379-2.641.476l-1.689.249c-2.587.844-3.724,5.326-3.973,12.437s-1.31,22.3-1.31,22.3,5.553,2.977,14.31,1.818a17.471,17.471,0,0,0,10.619-5.066,54.455,54.455,0,0,0-4.048-11.387C373,320.893,372.894,315.936,371.812,312.678Z" transform="translate(-312.473 -283.561)" fill="#455a64"/>
            <path id="Path_1524" data-name="Path 1524" d="M357.21,346.954a31.207,31.207,0,0,0,4.33-.271,16.983,16.983,0,0,0,10.608-5.109,54.816,54.816,0,0,0-4.037-11.344,46.794,46.794,0,0,0,3.42-11.831c-.336,2.165-3.475,10.359-7.577,12.827a7.35,7.35,0,0,1,4.33,3.085C370.242,337.039,368.608,346.37,357.21,346.954Z" transform="translate(-311.716 -282.799)" fill="#37474f"/>
            <path id="Path_1525" data-name="Path 1525" d="M353.108,297.137s-2.76-3.247-.6-6.495c2.544-3.767,7.014-5.044,12.545-3.4,2.749.812,6.765,4.6,6.971,9.915.162,4.092-11.322,6.8-11.138,9.6Z" transform="translate(-312.171 -285.425)" fill="#263238"/>
            <path id="Path_1526" data-name="Path 1526" d="M351.6,297.44s-1.613,2.435-1.4,2.7a3.745,3.745,0,0,0,1.234.53Z" transform="translate(-312.295 -284.527)" fill="#f28f8f"/>
            <path id="Path_1527" data-name="Path 1527" d="M356.443,290.348c-1.57.812-4.33,2.306-4.979,8.086s.606,7.988,1.418,8.757c.541.53,3.356.714,4.828.26,1.829-.563,5.813-2.533,7.685-5.6,2.165-3.594,2.641-8.4.108-10.272A9.46,9.46,0,0,0,356.443,290.348Z" transform="translate(-312.204 -285.164)" fill="#ffa8a7"/>
            <path id="Path_1528" data-name="Path 1528" d="M355.661,290.695s-1.364,5.412.271,8.822c0,0,.953-2.111,2.771-1.5s1.656,3.042.216,4.33a2.717,2.717,0,0,1-2.825.606,4.925,4.925,0,0,0,2.609,4.178s5.347,2.555,10.175-2.609c4.384-4.687,3.821-13.087-2.641-15.241A11.106,11.106,0,0,0,355.661,290.695Z" transform="translate(-311.888 -285.261)" fill="#263238"/>
            <path id="Path_1529" data-name="Path 1529" d="M374.637,291.2a5.694,5.694,0,1,1-5.694-5.694A5.694,5.694,0,0,1,374.637,291.2Z" transform="translate(-311.218 -285.51)" fill="#263238"/>
            <path id="Path_1530" data-name="Path 1530" d="M351.884,288.447c-2.4,2.446-2.544,9.525,4.438,11.257l4.557-12.513C358.227,285.46,354.038,286.261,351.884,288.447Z" transform="translate(-312.278 -285.449)" fill="#263238"/>
            <path id="Path_1531" data-name="Path 1531" d="M355.289,300.673a1.375,1.375,0,0,1,.931-2.587Z" transform="translate(-311.949 -284.48)" fill="#263238"/>
            <path id="Path_1532" data-name="Path 1532" d="M356.518,311.5s-1.137-.162-5.412.985-14.353,3.453-14.353,3.453-11.831-5.7-12.35-6.321-.227-1.873-.087-2.565.379-2.23.53-2.663c.271-.747-.844-.541-1.494.162s-.953,2.078-1.277,2.316-2.814-2.63-4.027-4.016-1.775-2.349-2.587-1.775c-.585.411-.206,1.223.66,2.414a12.82,12.82,0,0,1,1.082,1.57c.108.206-.216.379-.336.5s-.66.552-.682.877a4.4,4.4,0,0,1,0,.541c-.119.39-.606.574-.747.963s0,.585,0,.877-.141.357-.173.552a1.331,1.331,0,0,0,.39,1.017,9.894,9.894,0,0,0,3.117,2.013c.931.509,1.883.725,2.955,1.2s13.4,9.266,15.619,9.071c2.511-.216,17.828-2.955,17.828-2.955C359.148,316.974,356.518,311.5,356.518,311.5Z" transform="translate(-315.18 -284.241)" fill="#ffa8a7"/>
            <path id="Path_1533" data-name="Path 1533" d="M366.295,309.161a8.14,8.14,0,0,1,3.615.639c1.7.8,2.739,2.7,2.825,6.906s-3.247,14.526-3.247,14.526,3.55,8.378,4.211,12.058-.249,14.645-.249,14.645-6.971,5.7-20.848,3.247c-.281-.054-.509-13.043-.79-13.1s-.541,12.838-.79,12.783q-1.97-.422-4.092-1.082s.292-10.824.336-15.5.379-22.471,1.938-27.061a18.206,18.206,0,0,1,3.713-6.711h2.966Z" transform="translate(-312.563 -283.561)" fill="#f5f5f5"/>
            <path id="Path_1534" data-name="Path 1534" d="M356.85,310.45c-6.094-.455-13.8,2.912-20.858,4.709l-9.742-4.838s-3.052,3.247-1.288,5.607c0,0,9.038,6.495,11.192,6.928s18.077-2.8,18.077-2.8a5.888,5.888,0,0,0,3.561-4.914C358.236,311.294,356.85,310.45,356.85,310.45Z" transform="translate(-314.419 -283.465)" fill="#e0e0e0"/>
            <path id="Path_1535" data-name="Path 1535" d="M356.821,308.167a.823.823,0,0,0-.671.476c-.249.476-.92,2.035-.92,2.035s1.667,2.165,5.6,1.678,4.784-3.031,4.784-3.031-.4-2.251-1.364-2.165v.433s-.368.866-2.706,1.169C358.228,309.152,356.821,308.167,356.821,308.167Z" transform="translate(-311.879 -283.726)" fill="#e0e0e0"/>
            <path id="Path_1536" data-name="Path 1536" d="M356.51,330.208s6.852,1.721,11.03-.758c.639.574.6,1.223,0,2.316,0,0-4.092,2.425-11,.66A1.7,1.7,0,0,1,356.51,330.208Z" transform="translate(-311.806 -281.888)" fill="#f0f0f0"/>
            <path id="Path_1537" data-name="Path 1537" d="M357.744,331.346a.617.617,0,1,1-.617-.606.606.606,0,0,1,.617.606Z" transform="translate(-311.774 -281.782)" fill="#e0e0e0"/>
            <path id="Path_1538" data-name="Path 1538" d="M366.813,330.787a.606.606,0,0,1-.606.606.617.617,0,0,1-.617-.606.628.628,0,0,1,.617-.617A.617.617,0,0,1,366.813,330.787Z" transform="translate(-311.025 -281.829)" fill="#e0e0e0"/>
          </g>
        </g>
      </g>
      <g id="freepik--character-1--inject-6" transform="translate(131.368 296.615)">
        <g id="freepik--character-boy--inject-6" transform="translate(0 0)">
          <path id="Path_1539" data-name="Path 1539" d="M125.655,391.5c-.346.141-.422.823-.444,2.165,0,1.017-.195,2.8,1,3.128a3.734,3.734,0,0,0,3.691-.866,45.888,45.888,0,0,1,2.879-3.778,10.489,10.489,0,0,0,2.836-4.33c.39-1.613,0-2.306-1.082-2.749-1.515-.606-3.832,1.548-5.012,1.905C128.5,387.33,126.066,391.379,125.655,391.5Z" transform="translate(-122.237 -269.949)" fill="#407bff"/>
          <path id="Path_1540" data-name="Path 1540" d="M125.625,391.5c-.346.141-.422.823-.455,2.165,0,1.017-.195,2.8,1.007,3.128a3.756,3.756,0,0,0,3.691-.866,46.129,46.129,0,0,1,2.868-3.778,10.4,10.4,0,0,0,2.847-4.33c.39-1.613,0-2.306-1.082-2.749-1.515-.606-3.843,1.548-5.012,1.905S125.983,391.4,125.625,391.5Z" transform="translate(-122.24 -269.949)" opacity="0.4"/>
          <path id="Path_1541" data-name="Path 1541" d="M125.6,389.924v1.656a4.048,4.048,0,0,0,4.178,0c.065-.162.379-2.371.379-2.371Z" transform="translate(-122.204 -269.598)" fill="#ffa8a7"/>
          <path id="Path_1542" data-name="Path 1542" d="M138.249,399.53a27.738,27.738,0,0,0-.671,2.717,7.209,7.209,0,0,0-.065,3.42c.368.736,1.743,1.191,3.853,1.137a12.438,12.438,0,0,1,5,1.613,12.989,12.989,0,0,0,6.267.855c1.873-.26,3.8-1.4,4.092-2.165s-.141-1.58-4.611-3.377c0,0-6.213-1.862-8.41-4.189Z" transform="translate(-121.236 -268.748)" fill="#407bff"/>
          <path id="Path_1543" data-name="Path 1543" d="M138.249,399.53a27.738,27.738,0,0,0-.671,2.717,7.209,7.209,0,0,0-.065,3.42c.368.736,1.743,1.191,3.853,1.137a12.438,12.438,0,0,1,5,1.613,12.989,12.989,0,0,0,6.267.855c1.873-.26,3.8-1.4,4.092-2.165s-.141-1.58-4.611-3.377c0,0-6.213-1.862-8.41-4.189Z" transform="translate(-121.236 -268.748)" opacity="0.4"/>
          <path id="Path_1544" data-name="Path 1544" d="M138.14,397.892v1.916c0,.693.855,1.732,3,1.6,1.5-.087,2.544-.509,2.457-1.754V397.87Z" transform="translate(-121.17 -268.885)" fill="#ffa8a7"/>
          <path id="Path_1545" data-name="Path 1545" d="M124.192,372.978c.628-5.412.963-8.757.963-8.757s-.779-6.495-1.212-13.552c-.487-7.577-.39-16.615.249-19.819,0,0,24.409-5.51,25.047,3.247s-.271,31.163-.476,35.027-.79,7.3-1.44,13.574-2.533,20.815-2.533,20.815a5.791,5.791,0,0,1-5.412,0s-2.165-17.535-2.046-21.995a38.512,38.512,0,0,1,1.472-9.742s-.628-7.231-1.18-13.53-1.082-9.309-1.212-12.047l-.53-.249s-.292,10.889-.5,14.753-.736,7.577-1.689,14.775c-.833,6.235-3.42,19.484-3.42,19.484-2.76,1.58-4.47-.1-4.47-.1S123.554,378.39,124.192,372.978Z" transform="translate(-122.365 -274.55)" fill="#407bff"/>
          <path id="Path_1546" data-name="Path 1546" d="M136.089,345.342s-6.018-2.793-9.049-5.412a19.635,19.635,0,0,0,6.495,5.477s1.6,13.476,1.58,13.206l.455-13.314Z" transform="translate(-122.085 -273.66)" opacity="0.1"/>
          <path id="Path_1547" data-name="Path 1547" d="M139.9,298.791l-1.266,8.021-7.231-.368.844-9.374Z" transform="translate(-121.725 -277.193)" fill="#ffa8a7"/>
          <path id="Path_1548" data-name="Path 1548" d="M130.621,301.527s-5.022-1.288-7.166,2.306S123.3,315.2,123.3,315.2Z" transform="translate(-122.462 -276.844)" fill="#e0e0e0"/>
          <path id="Path_1549" data-name="Path 1549" d="M123.588,306.449c.66-2.165,4.254-5.412,7.025-4.936l1.883.314c.325,1.353,3.788,2.392,7.328,1.559,1.082.281,2.046.574,2.933.866,2.544.844,4.893,2.977,5.282,11.268,0,0,2.251,24.582,2.273,36.965a23.7,23.7,0,0,1-4.5,1.364c-.162,0-.812-15.057-.974-15.024s0,15.154-.238,15.241a40.882,40.882,0,0,1-11.907,0,23.565,23.565,0,0,1-9.85-3.724s0-15.825,1.082-23.64c-.509-5.347-.617-8.908-.855-10.824C122.452,310.606,123.134,307.954,123.588,306.449Z" transform="translate(-122.432 -276.831)" fill="#f5f5f5"/>
          <path id="Path_1550" data-name="Path 1550" d="M136.031,327.077s-7.025.639-10.824-2.457c-.714.465-.769,1.082-.325,2.284,0,0,3.68,3.031,10.77,2.36A1.678,1.678,0,0,0,136.031,327.077Z" transform="translate(-122.286 -274.922)" fill="#f0f0f0"/>
          <path id="Path_1551" data-name="Path 1551" d="M133.831,327.89a.617.617,0,1,0,.7-.52.628.628,0,0,0-.7.52Z" transform="translate(-121.526 -274.696)" fill="#e0e0e0"/>
          <path id="Path_1552" data-name="Path 1552" d="M125,325.924a.628.628,0,0,0,.52.7.606.606,0,0,0,.693-.509.617.617,0,1,0-1.212-.195Z" transform="translate(-122.253 -274.863)" fill="#e0e0e0"/>
          <path id="Path_1553" data-name="Path 1553" d="M139.581,301.009s.346-.1.6.379a17.9,17.9,0,0,1,.671,2.619s-1.526,1.743-5.412,1.266a5.492,5.492,0,0,1-4.8-3.345s.5-2.316,1.45-2.219l-.065.812s.368.866,2.706,1.169C137.979,302.113,139.581,301.009,139.581,301.009Z" transform="translate(-121.788 -276.976)" fill="#e0e0e0"/>
          <path id="Path_1554" data-name="Path 1554" d="M160.884,293.15,175.929,301l-7.48,20.458-14.05-7.869Z" transform="translate(-119.83 -277.516)" fill="#407bff"/>
          <path id="Path_1555" data-name="Path 1555" d="M160.884,293.15,175.929,301l-7.48,20.458-14.05-7.869Z" transform="translate(-119.83 -277.516)" opacity="0.3"/>
          <path id="Path_1556" data-name="Path 1556" d="M160.283,292.85l15.057,7.848-7.48,20.458-14.05-7.869Z" transform="translate(-119.878 -277.541)" fill="#407bff"/>
          <path id="Path_1557" data-name="Path 1557" d="M161.03,294.75l12.632,6.592-6.624,17.579-11.788-6.592Z" transform="translate(-119.76 -277.384)" fill="#f5f5f5"/>
          <path id="Path_1558" data-name="Path 1558" d="M163.49,296.811l.238-.628c.141-.346,1.191-.141,2.349.465L168.3,297.8c1.169.6,2,1.364,1.862,1.71l-.238.628Z" transform="translate(-119.08 -277.28)" opacity="0.15"/>
          <path id="Path_1559" data-name="Path 1559" d="M163.722,294.455c.087-.216.541-.184,1.017.076l.877.465s.53-1.342,2.533-.411,1.548,2.5,1.548,2.5l.931.509c.509.281.866.693.812.909l-.119.4-7.75-4.048S163.635,294.672,163.722,294.455Z" transform="translate(-119.074 -277.425)" fill="#37474f"/>
          <path id="Path_1560" data-name="Path 1560" d="M164.487,295.3c.725.346,1.007.52.8,1.082s-.455,1.082-.455,1.082l3.431,1.8s.281-.779.411-1.082.368-.444.92-.162l.206-.216-5.412-2.749Z" transform="translate(-119.006 -277.36)" fill="#263238"/>
          <path id="Path_1561" data-name="Path 1561" d="M163.35,296.841l.238-.628c.141-.346,1.191-.141,2.349.465l2.23,1.147c1.158.6,1.992,1.364,1.862,1.71l-.249.628Z" transform="translate(-119.092 -277.278)" fill="#37474f"/>
          <path id="Path_1562" data-name="Path 1562" d="M141.63,304.2c2.879.866,4.633,1.017,7.815,5.91s10.38,14.072,11.073,15.241a6.235,6.235,0,0,1,.314,5.585c-.779,1.385-2.641.574-5.8-2.165s-9.493-10.045-9.493-10.045A52.174,52.174,0,0,1,141.63,304.2Z" transform="translate(-120.882 -276.605)" fill="#ffa8a7"/>
          <path id="Path_1563" data-name="Path 1563" d="M158.525,331.48c2.663-.325,8.41-8.378,10.186-11.138a19.6,19.6,0,0,1,5.412-5.683c2.814-2.089,2.4-5.282,1.18-8.216-.433-1.017-1.873-.357-1.873-.357l-.509,1.4-.888,2.4c-.6.552-.931.736-.974.574a19.581,19.581,0,0,0,.433-2.955c0-1.634-1.158-.563-1.494,0a19.052,19.052,0,0,0-1.2,2.684c-.574,1.45-.336,2.923-1.028,3.918s-9.969,9.883-9.969,9.883Z" transform="translate(-119.549 -276.467)" fill="#ffa8a7"/>
          <path id="Path_1564" data-name="Path 1564" d="M141.324,304a15.066,15.066,0,0,1,4.33,1.407c2.284,1.158,3.042,3.117,6.354,7.4s7.577,10.164,7.577,10.164l7.718-6.787a4.46,4.46,0,0,0,3.529,3.247,47.724,47.724,0,0,1-6.679,9.9c-3.821,4.1-3.843,3.9-7.328,1.851s-11.5-11.907-11.5-11.907S137.373,313.049,141.324,304Z" transform="translate(-120.998 -276.622)" fill="#e0e0e0"/>
          <path id="Path_1565" data-name="Path 1565" d="M144.19,289.57s1.894,2.879,1.678,3.161-1.6.53-1.6.53Z" transform="translate(-120.671 -277.811)" fill="#f28f8f"/>
          <path id="Path_1566" data-name="Path 1566" d="M141.29,289.362a2.262,2.262,0,1,1,2.251,2.262,2.262,2.262,0,0,1-2.251-2.262Zm.5,0a1.764,1.764,0,1,0,1.754-1.754A1.764,1.764,0,0,0,141.788,289.362Z" transform="translate(-120.91 -278.015)" fill="#263238"/>
          <path id="Path_1567" data-name="Path 1567" d="M140.228,282.248c3.832.812,4.947,2.5,5.3,8.584.379,6.375-.271,8.367-1.082,9.233-.563.574-3.7.682-5.282.238-1.981-.541-6.495-2.165-8.562-5.326C128.137,291.2,127.5,286.1,130.14,284,133.831,281.058,138.669,281.924,140.228,282.248Z" transform="translate(-121.97 -278.446)" fill="#ffa8a7"/>
          <path id="Path_1568" data-name="Path 1568" d="M145.778,288.75l-6.808.888.271.476,6.538-.844Z" transform="translate(-121.102 -277.879)" fill="#263238"/>
          <path id="Path_1569" data-name="Path 1569" d="M146.2,284.5l-.108.108c-.747.7-1.689,1.147-2.457,1.808a5.715,5.715,0,0,0-1.743,2.782c-.26.877-.357,1.927-1.31,2.338,0,0-.606-2.36-2.6-2.067s-2.262,2.847-1.007,4.395,2.435.953,2.435.953-.065,3.366-1.548,5.271a10.294,10.294,0,0,1-4.817-.119c-1.916-.411-4.633-2.8-5.769-5.347-2.414-5.412-2.576-10.2.844-11.647.368-2.468,2.316-3.583,4.535-4.092,3.323-.758,6.43,1.212,9.742.476.693-.152,1.364-.4,2.057-.487a.346.346,0,0,1,.238,0c.173.087.162.325.108.5a4.243,4.243,0,0,1-.963,1.775,10.336,10.336,0,0,0,3.724-.465A4.8,4.8,0,0,1,146.2,284.5Z" transform="translate(-122.212 -278.707)" fill="#263238"/>
          <path id="Path_1570" data-name="Path 1570" d="M128.045,283.573l-2.295-1.353a1.332,1.332,0,0,1,2.295,1.353Z" transform="translate(-122.191 -278.471)" fill="#263238"/>
          <path id="Path_1571" data-name="Path 1571" d="M139.476,292l-.076-2.674a1.342,1.342,0,0,1,.076,2.674Z" transform="translate(-121.066 -277.831)" fill="#263238"/>
        </g>
      </g>
    </g>
  </g>
</svg>
